<svg width="172" height="52" viewBox="0 0 172 52" fill="none" xmlns="http://www.w3.org/2000/svg">
<g filter="url(#filter0_dd_1_3)">
<mask id="path-1-outside-1_1_3" maskUnits="userSpaceOnUse" x="10" y="6" width="152" height="32" fill="black">
<rect fill="white" x="10" y="6" width="152" height="32"/>
<path d="M11.5234 7.32812C13.7109 7.40625 15.9896 7.44531 18.3594 7.44531H20.6055C21.556 7.43229 23.1966 7.42578 25.5273 7.42578C27.8711 7.41276 29.8698 7.39974 31.5234 7.38672C33.1901 7.3737 34.8438 7.34115 36.4844 7.28906C36.5885 8.1875 36.8099 9.125 37.1484 10.1016C37.487 11.0651 37.8125 11.8594 38.125 12.4844C38.4375 13.0964 38.8477 13.8385 39.3555 14.7109C39.2513 14.9323 39.0234 15.1081 38.6719 15.2383C38.2031 14.3529 37.6367 13.5651 36.9727 12.875C36.3086 12.1849 35.4688 11.5339 34.4531 10.9219C33.4505 10.3099 32.194 9.80859 30.6836 9.41797C29.1862 9.02734 27.4805 8.76693 25.5664 8.63672H20.6055C20.4362 14.2617 20.3516 18.513 20.3516 21.3906H25.918C26.2435 21.3906 26.5495 21.3646 26.8359 21.3125C27.1224 21.2474 27.3893 21.1432 27.6367 21C27.8971 20.8568 28.1185 20.7201 28.3008 20.5898C28.4961 20.4466 28.6979 20.2383 28.9062 19.9648C29.1276 19.6784 29.3034 19.444 29.4336 19.2617C29.5638 19.0794 29.7266 18.793 29.9219 18.4023C30.1172 17.9987 30.2669 17.6927 30.3711 17.4844C30.4753 17.276 30.6315 16.931 30.8398 16.4492C31.0612 15.9674 31.224 15.6159 31.3281 15.3945C31.7839 15.5898 32.0312 15.7526 32.0703 15.8828C31.3021 17.888 30.918 19.9258 30.918 21.9961C30.918 24.0534 31.3021 26.0977 32.0703 28.1289C31.9792 28.3112 31.7318 28.4805 31.3281 28.6367C30.5339 26.7227 29.9284 25.4401 29.5117 24.7891C28.5482 23.3438 27.3503 22.6146 25.918 22.6016H20.3516C20.3516 25.401 20.4232 28.9753 20.5664 33.3242C20.5794 33.6628 20.7292 33.9557 21.0156 34.2031C21.3021 34.4375 21.7122 34.6198 22.2461 34.75C22.793 34.8802 23.2487 34.9779 23.6133 35.043C23.9909 35.0951 24.4792 35.1471 25.0781 35.1992C25.1302 35.4596 25.1562 35.6354 25.1562 35.7266C25.1562 35.8307 25.1302 35.9609 25.0781 36.1172C22.8646 36.0391 20.599 36 18.2812 36C15.9375 36 13.6719 36.0391 11.4844 36.1172C11.4323 35.9609 11.4062 35.8307 11.4062 35.7266C11.4062 35.6354 11.4323 35.4596 11.4844 35.1992C11.875 35.1602 12.1875 35.1276 12.4219 35.1016C12.6562 35.0755 12.9753 35.0299 13.3789 34.9648C13.7956 34.8997 14.1276 34.8281 14.375 34.75C14.6354 34.6589 14.9023 34.5482 15.1758 34.418C15.4492 34.2878 15.651 34.1315 15.7812 33.9492C15.9245 33.7669 15.9961 33.5586 15.9961 33.3242C16.1523 29.2487 16.2305 25.1406 16.2305 21C16.2305 16.7812 16.1654 13.1419 16.0352 10.082C16.0221 9.74349 15.8724 9.45703 15.5859 9.22266C15.3125 8.98828 14.8958 8.80599 14.3359 8.67578C13.776 8.54557 13.3268 8.46094 12.9883 8.42188C12.6497 8.36979 12.1615 8.3112 11.5234 8.24609C11.4714 8.01172 11.4453 7.84896 11.4453 7.75781C11.4453 7.67969 11.4714 7.53646 11.5234 7.32812ZM50.1758 18.2461C51.4648 18.2461 52.6237 18.474 53.6523 18.9297C54.694 19.3854 55.5794 20.0169 56.3086 20.8242C57.0378 21.6315 57.5977 22.6016 57.9883 23.7344C58.3789 24.8542 58.5742 26.0781 58.5742 27.4062C58.5742 30.1146 57.8125 32.3151 56.2891 34.0078C54.7786 35.7135 52.7409 36.5664 50.1758 36.5664C48.8997 36.5664 47.7409 36.3451 46.6992 35.9023C45.6706 35.4466 44.7917 34.8151 44.0625 34.0078C43.3333 33.1875 42.7669 32.2174 42.3633 31.0977C41.9727 29.9779 41.7773 28.7474 41.7773 27.4062C41.7773 26.0781 41.9727 24.8542 42.3633 23.7344C42.7539 22.6016 43.3073 21.6315 44.0234 20.8242C44.7526 20.0169 45.638 19.3854 46.6797 18.9297C47.7214 18.474 48.8867 18.2461 50.1758 18.2461ZM50.1758 19.5156C48.8477 19.5156 47.7865 20.1602 46.9922 21.4492C46.2109 22.7383 45.8203 24.724 45.8203 27.4062C45.8203 30.0885 46.2109 32.0742 46.9922 33.3633C47.7865 34.6393 48.8477 35.2773 50.1758 35.2773C51.5039 35.2773 52.5586 34.6328 53.3398 33.3438C54.1341 32.0547 54.5312 30.0755 54.5312 27.4062C54.5312 26.0651 54.4271 24.8997 54.2188 23.9102C54.0104 22.9206 53.7174 22.1003 53.3398 21.4492C52.9622 20.7982 52.5065 20.3164 51.9727 20.0039C51.4388 19.6784 50.8398 19.5156 50.1758 19.5156ZM62.4609 19.9258C64.987 19.6654 67.1875 19.1315 69.0625 18.3242C69.388 18.4544 69.6159 18.6237 69.7461 18.832V22.1914C70.2279 21.2799 70.944 20.3945 71.8945 19.5352C72.8581 18.6758 73.8607 18.2461 74.9023 18.2461C75.6836 18.2461 76.3151 18.4805 76.7969 18.9492C77.2917 19.4049 77.5391 20.0365 77.5391 20.8438C77.5391 21.612 77.3112 22.2109 76.8555 22.6406C76.3997 23.0703 75.8268 23.2852 75.1367 23.2852C74.4987 23.2852 73.9714 23.0833 73.5547 22.6797C73.151 22.263 72.9297 21.7161 72.8906 21.0391C72.3438 21.2734 71.7188 21.7943 71.0156 22.6016C70.3255 23.4089 69.9023 24.2096 69.7461 25.0039C69.7461 27.9076 69.7982 30.681 69.9023 33.3242C69.9154 33.6628 70.0391 33.9557 70.2734 34.2031C70.5078 34.4375 70.8529 34.6198 71.3086 34.75C71.7643 34.8802 72.1419 34.9779 72.4414 35.043C72.7409 35.0951 73.1315 35.1471 73.6133 35.1992C73.6914 35.3555 73.7305 35.5182 73.7305 35.6875C73.7305 35.8177 73.6914 35.9609 73.6133 36.1172C71.6602 36.0391 69.7266 36 67.8125 36C66.224 36 64.5703 36.0391 62.8516 36.1172C62.7995 35.9089 62.7734 35.7656 62.7734 35.6875C62.7734 35.6224 62.7995 35.4596 62.8516 35.1992C63.2812 35.1471 63.6328 35.0951 63.9062 35.043C64.1797 34.9779 64.5182 34.8802 64.9219 34.75C65.3255 34.6198 65.6315 34.4375 65.8398 34.2031C66.0482 33.9557 66.1589 33.6628 66.1719 33.3242C66.224 32.0352 66.25 30.4727 66.25 28.6367C66.25 28.0247 66.2435 26.9831 66.2305 25.5117C66.2174 24.0404 66.2109 22.7513 66.2109 21.6445C65.4688 21.1888 64.2188 20.9219 62.4609 20.8438C62.4089 20.6354 62.3828 20.4727 62.3828 20.3555C62.3828 20.2773 62.4089 20.1341 62.4609 19.9258ZM85.5859 14.9258C85.7161 14.8737 85.8659 14.8477 86.0352 14.8477C86.2044 14.8477 86.3802 14.8737 86.5625 14.9258V19.2031H92.4805C92.5586 19.3984 92.5977 19.6393 92.5977 19.9258C92.5977 20.1732 92.5586 20.401 92.4805 20.6094H86.5625V31.0391C86.5625 33.0964 87.5065 34.125 89.3945 34.125C90.1107 34.125 90.7227 33.9883 91.2305 33.7148C91.7513 33.4414 92.3242 33.0312 92.9492 32.4844C93.2747 32.5234 93.4896 32.6797 93.5938 32.9531C93.0208 33.9818 92.1745 34.8411 91.0547 35.5312C89.9349 36.2214 88.7044 36.5664 87.3633 36.5664C84.2122 36.5664 82.6367 34.6589 82.6367 30.8438V20.6094H80.2344C80.1823 20.375 80.1562 20.2253 80.1562 20.1602C80.1562 20.1471 80.1823 19.9974 80.2344 19.7109C80.8594 19.3984 81.3346 19.1445 81.6602 18.9492C81.9987 18.7409 82.4219 18.4479 82.9297 18.0703C83.4505 17.6927 83.9193 17.25 84.3359 16.7422C84.7656 16.2214 85.1823 15.6159 85.5859 14.9258ZM95.3711 18.6758C95.8398 18.7018 96.3086 18.7279 96.7773 18.7539C97.2461 18.7799 97.6172 18.7995 97.8906 18.8125C98.1641 18.8255 98.418 18.832 98.6523 18.832C98.8477 18.832 99.0755 18.8255 99.3359 18.8125C99.5964 18.7995 99.9479 18.7799 100.391 18.7539C100.846 18.7279 101.283 18.7018 101.699 18.6758C101.934 18.7539 102.122 18.9557 102.266 19.2812C102.253 19.3854 102.227 19.5417 102.188 19.75C102.161 19.9453 102.135 20.1862 102.109 20.4727C102.096 20.7461 102.09 21.0846 102.09 21.4883L102.051 30.7656C102.051 33.1094 102.76 34.2812 104.18 34.2812C105.495 34.2812 107.363 33.4154 109.785 31.6836C109.785 27.8034 109.727 24.4049 109.609 21.4883C109.609 21.2539 109.564 21.0456 109.473 20.8633C109.382 20.681 109.238 20.5247 109.043 20.3945C108.861 20.2643 108.691 20.1602 108.535 20.082C108.392 19.9909 108.177 19.9128 107.891 19.8477C107.604 19.7695 107.402 19.724 107.285 19.7109C107.168 19.6849 106.973 19.6458 106.699 19.5938C106.647 19.3854 106.621 19.2292 106.621 19.125C106.621 19.0339 106.647 18.8841 106.699 18.6758C107.155 18.7018 107.617 18.7279 108.086 18.7539C108.568 18.7799 108.945 18.7995 109.219 18.8125C109.492 18.8255 109.746 18.832 109.98 18.832C110.176 18.832 110.404 18.8255 110.664 18.8125C110.924 18.7995 111.276 18.7799 111.719 18.7539C112.174 18.7279 112.611 18.7018 113.027 18.6758C113.092 18.7148 113.145 18.7539 113.184 18.793C113.236 18.819 113.275 18.8581 113.301 18.9102C113.34 18.9492 113.366 18.9818 113.379 19.0078C113.392 19.0208 113.411 19.0664 113.438 19.1445C113.464 19.2096 113.483 19.2552 113.496 19.2812C113.392 19.9844 113.34 20.7201 113.34 21.4883C113.262 23.4023 113.223 24.9583 113.223 26.1562C113.223 26.7812 113.236 27.8294 113.262 29.3008C113.288 30.7721 113.301 32.0612 113.301 33.168C114.043 33.5977 115.293 33.8646 117.051 33.9688C117.116 34.2943 117.148 34.4635 117.148 34.4766C117.148 34.5547 117.116 34.6914 117.051 34.8867C114.59 35.1211 112.389 35.6549 110.449 36.4883C110.111 36.3451 109.889 36.1693 109.785 35.9609V32.9141C108.483 34.0339 107.253 34.9258 106.094 35.5898C104.948 36.2409 103.789 36.5664 102.617 36.5664C101.133 36.5664 100.078 36.1497 99.4531 35.3164C98.8411 34.4831 98.5221 33.1745 98.4961 31.3906L98.3398 21.4883C98.3138 21.1888 98.2552 20.9674 98.1641 20.8242C98.0859 20.668 97.9492 20.5247 97.7539 20.3945C97.5716 20.2643 97.4023 20.1602 97.2461 20.082C97.0898 19.9909 96.8685 19.9128 96.582 19.8477C96.2956 19.7695 96.0938 19.724 95.9766 19.7109C95.8594 19.6849 95.6576 19.6458 95.3711 19.5938C95.319 19.3854 95.293 19.2292 95.293 19.125C95.293 19.0339 95.319 18.8841 95.3711 18.6758ZM130.391 35.1992C130.469 35.3555 130.508 35.5182 130.508 35.6875C130.508 35.8177 130.469 35.9609 130.391 36.1172C128.672 36.0391 127.005 36 125.391 36C123.802 36 122.148 36.0391 120.43 36.1172C120.378 35.9089 120.352 35.7656 120.352 35.6875C120.352 35.6224 120.378 35.4596 120.43 35.1992C120.859 35.1471 121.211 35.0951 121.484 35.043C121.758 34.9779 122.096 34.8802 122.5 34.75C122.904 34.6198 123.21 34.4375 123.418 34.2031C123.626 33.9557 123.737 33.6628 123.75 33.3242C123.802 32.0352 123.828 30.4727 123.828 28.6367C123.828 28.0247 123.822 26.9831 123.809 25.5117C123.796 24.0404 123.789 22.7513 123.789 21.6445C123.047 21.1888 121.797 20.9219 120.039 20.8438C119.987 20.6354 119.961 20.4727 119.961 20.3555C119.961 20.2773 119.987 20.1341 120.039 19.9258C122.565 19.6654 124.766 19.1315 126.641 18.3242C126.966 18.4544 127.194 18.6237 127.324 18.832V21.918C128.587 20.8112 129.798 19.9258 130.957 19.2617C132.116 18.5846 133.288 18.2461 134.473 18.2461C135.957 18.2461 137.005 18.6628 137.617 19.4961C138.242 20.3294 138.568 21.6315 138.594 23.4023L138.789 33.3242C138.802 33.6628 138.9 33.9557 139.082 34.2031C139.277 34.4375 139.551 34.6198 139.902 34.75C140.267 34.8802 140.566 34.9779 140.801 35.043C141.035 35.0951 141.341 35.1471 141.719 35.1992C141.771 35.4596 141.797 35.6354 141.797 35.7266C141.797 35.8307 141.771 35.9609 141.719 36.1172C140.039 36.0391 138.49 36 137.07 36C135.69 36 134.16 36.0391 132.48 36.1172C132.428 35.9089 132.402 35.7526 132.402 35.6484C132.402 35.5573 132.428 35.4076 132.48 35.1992C132.819 35.1471 133.099 35.0951 133.32 35.043C133.555 34.9779 133.815 34.8802 134.102 34.75C134.401 34.6198 134.622 34.4375 134.766 34.2031C134.922 33.9557 135 33.6628 135 33.3242L135.039 24.0469C135.039 21.6901 134.329 20.5117 132.91 20.5117C131.582 20.5117 129.72 21.3971 127.324 23.168C127.324 26.957 127.376 30.3424 127.48 33.3242C127.493 33.6628 127.591 33.9557 127.773 34.2031C127.969 34.4375 128.242 34.6198 128.594 34.75C128.945 34.8802 129.238 34.9779 129.473 35.043C129.707 35.0951 130.013 35.1471 130.391 35.1992ZM159.609 25.6484H148.965C148.913 26.4297 148.887 27.1198 148.887 27.7188C148.926 29.6589 149.492 31.2148 150.586 32.3867C151.68 33.5456 153.145 34.125 154.98 34.125C155.475 34.125 155.938 34.0729 156.367 33.9688C156.797 33.8516 157.148 33.7214 157.422 33.5781C157.708 33.4349 158.001 33.2266 158.301 32.9531C158.6 32.6797 158.815 32.4648 158.945 32.3086C159.089 32.1393 159.277 31.8919 159.512 31.5664C159.746 31.2279 159.902 31.013 159.98 30.9219C160.293 30.987 160.547 31.1302 160.742 31.3516C160.091 33.0964 159.082 34.4049 157.715 35.2773C156.348 36.1367 154.863 36.5664 153.262 36.5664C152.467 36.5664 151.693 36.4622 150.938 36.2539C150.195 36.0586 149.473 35.7331 148.77 35.2773C148.066 34.8216 147.454 34.2617 146.934 33.5977C146.413 32.9206 145.996 32.0807 145.684 31.0781C145.371 30.0625 145.215 28.9427 145.215 27.7188C145.215 24.9714 146.055 22.7057 147.734 20.9219C149.414 19.138 151.478 18.2461 153.926 18.2461C155.007 18.2461 155.944 18.4023 156.738 18.7148C157.546 19.0143 158.171 19.4245 158.613 19.9453C159.069 20.4661 159.401 21.0391 159.609 21.6641C159.831 22.276 159.941 22.9336 159.941 23.6367C159.941 24.2878 159.831 24.9583 159.609 25.6484ZM153.457 19.5156C152.559 19.5156 151.706 19.9128 150.898 20.707C150.104 21.5013 149.531 22.7057 149.18 24.3203H156.211C156.341 23.8255 156.406 23.3958 156.406 23.0312C156.406 22.0156 156.172 21.1758 155.703 20.5117C155.234 19.8477 154.486 19.5156 153.457 19.5156Z"/>
</mask>
<path d="M11.5234 7.32812C13.7109 7.40625 15.9896 7.44531 18.3594 7.44531H20.6055C21.556 7.43229 23.1966 7.42578 25.5273 7.42578C27.8711 7.41276 29.8698 7.39974 31.5234 7.38672C33.1901 7.3737 34.8438 7.34115 36.4844 7.28906C36.5885 8.1875 36.8099 9.125 37.1484 10.1016C37.487 11.0651 37.8125 11.8594 38.125 12.4844C38.4375 13.0964 38.8477 13.8385 39.3555 14.7109C39.2513 14.9323 39.0234 15.1081 38.6719 15.2383C38.2031 14.3529 37.6367 13.5651 36.9727 12.875C36.3086 12.1849 35.4688 11.5339 34.4531 10.9219C33.4505 10.3099 32.194 9.80859 30.6836 9.41797C29.1862 9.02734 27.4805 8.76693 25.5664 8.63672H20.6055C20.4362 14.2617 20.3516 18.513 20.3516 21.3906H25.918C26.2435 21.3906 26.5495 21.3646 26.8359 21.3125C27.1224 21.2474 27.3893 21.1432 27.6367 21C27.8971 20.8568 28.1185 20.7201 28.3008 20.5898C28.4961 20.4466 28.6979 20.2383 28.9062 19.9648C29.1276 19.6784 29.3034 19.444 29.4336 19.2617C29.5638 19.0794 29.7266 18.793 29.9219 18.4023C30.1172 17.9987 30.2669 17.6927 30.3711 17.4844C30.4753 17.276 30.6315 16.931 30.8398 16.4492C31.0612 15.9674 31.224 15.6159 31.3281 15.3945C31.7839 15.5898 32.0312 15.7526 32.0703 15.8828C31.3021 17.888 30.918 19.9258 30.918 21.9961C30.918 24.0534 31.3021 26.0977 32.0703 28.1289C31.9792 28.3112 31.7318 28.4805 31.3281 28.6367C30.5339 26.7227 29.9284 25.4401 29.5117 24.7891C28.5482 23.3438 27.3503 22.6146 25.918 22.6016H20.3516C20.3516 25.401 20.4232 28.9753 20.5664 33.3242C20.5794 33.6628 20.7292 33.9557 21.0156 34.2031C21.3021 34.4375 21.7122 34.6198 22.2461 34.75C22.793 34.8802 23.2487 34.9779 23.6133 35.043C23.9909 35.0951 24.4792 35.1471 25.0781 35.1992C25.1302 35.4596 25.1562 35.6354 25.1562 35.7266C25.1562 35.8307 25.1302 35.9609 25.0781 36.1172C22.8646 36.0391 20.599 36 18.2812 36C15.9375 36 13.6719 36.0391 11.4844 36.1172C11.4323 35.9609 11.4062 35.8307 11.4062 35.7266C11.4062 35.6354 11.4323 35.4596 11.4844 35.1992C11.875 35.1602 12.1875 35.1276 12.4219 35.1016C12.6562 35.0755 12.9753 35.0299 13.3789 34.9648C13.7956 34.8997 14.1276 34.8281 14.375 34.75C14.6354 34.6589 14.9023 34.5482 15.1758 34.418C15.4492 34.2878 15.651 34.1315 15.7812 33.9492C15.9245 33.7669 15.9961 33.5586 15.9961 33.3242C16.1523 29.2487 16.2305 25.1406 16.2305 21C16.2305 16.7812 16.1654 13.1419 16.0352 10.082C16.0221 9.74349 15.8724 9.45703 15.5859 9.22266C15.3125 8.98828 14.8958 8.80599 14.3359 8.67578C13.776 8.54557 13.3268 8.46094 12.9883 8.42188C12.6497 8.36979 12.1615 8.3112 11.5234 8.24609C11.4714 8.01172 11.4453 7.84896 11.4453 7.75781C11.4453 7.67969 11.4714 7.53646 11.5234 7.32812ZM50.1758 18.2461C51.4648 18.2461 52.6237 18.474 53.6523 18.9297C54.694 19.3854 55.5794 20.0169 56.3086 20.8242C57.0378 21.6315 57.5977 22.6016 57.9883 23.7344C58.3789 24.8542 58.5742 26.0781 58.5742 27.4062C58.5742 30.1146 57.8125 32.3151 56.2891 34.0078C54.7786 35.7135 52.7409 36.5664 50.1758 36.5664C48.8997 36.5664 47.7409 36.3451 46.6992 35.9023C45.6706 35.4466 44.7917 34.8151 44.0625 34.0078C43.3333 33.1875 42.7669 32.2174 42.3633 31.0977C41.9727 29.9779 41.7773 28.7474 41.7773 27.4062C41.7773 26.0781 41.9727 24.8542 42.3633 23.7344C42.7539 22.6016 43.3073 21.6315 44.0234 20.8242C44.7526 20.0169 45.638 19.3854 46.6797 18.9297C47.7214 18.474 48.8867 18.2461 50.1758 18.2461ZM50.1758 19.5156C48.8477 19.5156 47.7865 20.1602 46.9922 21.4492C46.2109 22.7383 45.8203 24.724 45.8203 27.4062C45.8203 30.0885 46.2109 32.0742 46.9922 33.3633C47.7865 34.6393 48.8477 35.2773 50.1758 35.2773C51.5039 35.2773 52.5586 34.6328 53.3398 33.3438C54.1341 32.0547 54.5312 30.0755 54.5312 27.4062C54.5312 26.0651 54.4271 24.8997 54.2188 23.9102C54.0104 22.9206 53.7174 22.1003 53.3398 21.4492C52.9622 20.7982 52.5065 20.3164 51.9727 20.0039C51.4388 19.6784 50.8398 19.5156 50.1758 19.5156ZM62.4609 19.9258C64.987 19.6654 67.1875 19.1315 69.0625 18.3242C69.388 18.4544 69.6159 18.6237 69.7461 18.832V22.1914C70.2279 21.2799 70.944 20.3945 71.8945 19.5352C72.8581 18.6758 73.8607 18.2461 74.9023 18.2461C75.6836 18.2461 76.3151 18.4805 76.7969 18.9492C77.2917 19.4049 77.5391 20.0365 77.5391 20.8438C77.5391 21.612 77.3112 22.2109 76.8555 22.6406C76.3997 23.0703 75.8268 23.2852 75.1367 23.2852C74.4987 23.2852 73.9714 23.0833 73.5547 22.6797C73.151 22.263 72.9297 21.7161 72.8906 21.0391C72.3438 21.2734 71.7188 21.7943 71.0156 22.6016C70.3255 23.4089 69.9023 24.2096 69.7461 25.0039C69.7461 27.9076 69.7982 30.681 69.9023 33.3242C69.9154 33.6628 70.0391 33.9557 70.2734 34.2031C70.5078 34.4375 70.8529 34.6198 71.3086 34.75C71.7643 34.8802 72.1419 34.9779 72.4414 35.043C72.7409 35.0951 73.1315 35.1471 73.6133 35.1992C73.6914 35.3555 73.7305 35.5182 73.7305 35.6875C73.7305 35.8177 73.6914 35.9609 73.6133 36.1172C71.6602 36.0391 69.7266 36 67.8125 36C66.224 36 64.5703 36.0391 62.8516 36.1172C62.7995 35.9089 62.7734 35.7656 62.7734 35.6875C62.7734 35.6224 62.7995 35.4596 62.8516 35.1992C63.2812 35.1471 63.6328 35.0951 63.9062 35.043C64.1797 34.9779 64.5182 34.8802 64.9219 34.75C65.3255 34.6198 65.6315 34.4375 65.8398 34.2031C66.0482 33.9557 66.1589 33.6628 66.1719 33.3242C66.224 32.0352 66.25 30.4727 66.25 28.6367C66.25 28.0247 66.2435 26.9831 66.2305 25.5117C66.2174 24.0404 66.2109 22.7513 66.2109 21.6445C65.4688 21.1888 64.2188 20.9219 62.4609 20.8438C62.4089 20.6354 62.3828 20.4727 62.3828 20.3555C62.3828 20.2773 62.4089 20.1341 62.4609 19.9258ZM85.5859 14.9258C85.7161 14.8737 85.8659 14.8477 86.0352 14.8477C86.2044 14.8477 86.3802 14.8737 86.5625 14.9258V19.2031H92.4805C92.5586 19.3984 92.5977 19.6393 92.5977 19.9258C92.5977 20.1732 92.5586 20.401 92.4805 20.6094H86.5625V31.0391C86.5625 33.0964 87.5065 34.125 89.3945 34.125C90.1107 34.125 90.7227 33.9883 91.2305 33.7148C91.7513 33.4414 92.3242 33.0312 92.9492 32.4844C93.2747 32.5234 93.4896 32.6797 93.5938 32.9531C93.0208 33.9818 92.1745 34.8411 91.0547 35.5312C89.9349 36.2214 88.7044 36.5664 87.3633 36.5664C84.2122 36.5664 82.6367 34.6589 82.6367 30.8438V20.6094H80.2344C80.1823 20.375 80.1562 20.2253 80.1562 20.1602C80.1562 20.1471 80.1823 19.9974 80.2344 19.7109C80.8594 19.3984 81.3346 19.1445 81.6602 18.9492C81.9987 18.7409 82.4219 18.4479 82.9297 18.0703C83.4505 17.6927 83.9193 17.25 84.3359 16.7422C84.7656 16.2214 85.1823 15.6159 85.5859 14.9258ZM95.3711 18.6758C95.8398 18.7018 96.3086 18.7279 96.7773 18.7539C97.2461 18.7799 97.6172 18.7995 97.8906 18.8125C98.1641 18.8255 98.418 18.832 98.6523 18.832C98.8477 18.832 99.0755 18.8255 99.3359 18.8125C99.5964 18.7995 99.9479 18.7799 100.391 18.7539C100.846 18.7279 101.283 18.7018 101.699 18.6758C101.934 18.7539 102.122 18.9557 102.266 19.2812C102.253 19.3854 102.227 19.5417 102.188 19.75C102.161 19.9453 102.135 20.1862 102.109 20.4727C102.096 20.7461 102.09 21.0846 102.09 21.4883L102.051 30.7656C102.051 33.1094 102.76 34.2812 104.18 34.2812C105.495 34.2812 107.363 33.4154 109.785 31.6836C109.785 27.8034 109.727 24.4049 109.609 21.4883C109.609 21.2539 109.564 21.0456 109.473 20.8633C109.382 20.681 109.238 20.5247 109.043 20.3945C108.861 20.2643 108.691 20.1602 108.535 20.082C108.392 19.9909 108.177 19.9128 107.891 19.8477C107.604 19.7695 107.402 19.724 107.285 19.7109C107.168 19.6849 106.973 19.6458 106.699 19.5938C106.647 19.3854 106.621 19.2292 106.621 19.125C106.621 19.0339 106.647 18.8841 106.699 18.6758C107.155 18.7018 107.617 18.7279 108.086 18.7539C108.568 18.7799 108.945 18.7995 109.219 18.8125C109.492 18.8255 109.746 18.832 109.98 18.832C110.176 18.832 110.404 18.8255 110.664 18.8125C110.924 18.7995 111.276 18.7799 111.719 18.7539C112.174 18.7279 112.611 18.7018 113.027 18.6758C113.092 18.7148 113.145 18.7539 113.184 18.793C113.236 18.819 113.275 18.8581 113.301 18.9102C113.34 18.9492 113.366 18.9818 113.379 19.0078C113.392 19.0208 113.411 19.0664 113.438 19.1445C113.464 19.2096 113.483 19.2552 113.496 19.2812C113.392 19.9844 113.34 20.7201 113.34 21.4883C113.262 23.4023 113.223 24.9583 113.223 26.1562C113.223 26.7812 113.236 27.8294 113.262 29.3008C113.288 30.7721 113.301 32.0612 113.301 33.168C114.043 33.5977 115.293 33.8646 117.051 33.9688C117.116 34.2943 117.148 34.4635 117.148 34.4766C117.148 34.5547 117.116 34.6914 117.051 34.8867C114.59 35.1211 112.389 35.6549 110.449 36.4883C110.111 36.3451 109.889 36.1693 109.785 35.9609V32.9141C108.483 34.0339 107.253 34.9258 106.094 35.5898C104.948 36.2409 103.789 36.5664 102.617 36.5664C101.133 36.5664 100.078 36.1497 99.4531 35.3164C98.8411 34.4831 98.5221 33.1745 98.4961 31.3906L98.3398 21.4883C98.3138 21.1888 98.2552 20.9674 98.1641 20.8242C98.0859 20.668 97.9492 20.5247 97.7539 20.3945C97.5716 20.2643 97.4023 20.1602 97.2461 20.082C97.0898 19.9909 96.8685 19.9128 96.582 19.8477C96.2956 19.7695 96.0938 19.724 95.9766 19.7109C95.8594 19.6849 95.6576 19.6458 95.3711 19.5938C95.319 19.3854 95.293 19.2292 95.293 19.125C95.293 19.0339 95.319 18.8841 95.3711 18.6758ZM130.391 35.1992C130.469 35.3555 130.508 35.5182 130.508 35.6875C130.508 35.8177 130.469 35.9609 130.391 36.1172C128.672 36.0391 127.005 36 125.391 36C123.802 36 122.148 36.0391 120.43 36.1172C120.378 35.9089 120.352 35.7656 120.352 35.6875C120.352 35.6224 120.378 35.4596 120.43 35.1992C120.859 35.1471 121.211 35.0951 121.484 35.043C121.758 34.9779 122.096 34.8802 122.5 34.75C122.904 34.6198 123.21 34.4375 123.418 34.2031C123.626 33.9557 123.737 33.6628 123.75 33.3242C123.802 32.0352 123.828 30.4727 123.828 28.6367C123.828 28.0247 123.822 26.9831 123.809 25.5117C123.796 24.0404 123.789 22.7513 123.789 21.6445C123.047 21.1888 121.797 20.9219 120.039 20.8438C119.987 20.6354 119.961 20.4727 119.961 20.3555C119.961 20.2773 119.987 20.1341 120.039 19.9258C122.565 19.6654 124.766 19.1315 126.641 18.3242C126.966 18.4544 127.194 18.6237 127.324 18.832V21.918C128.587 20.8112 129.798 19.9258 130.957 19.2617C132.116 18.5846 133.288 18.2461 134.473 18.2461C135.957 18.2461 137.005 18.6628 137.617 19.4961C138.242 20.3294 138.568 21.6315 138.594 23.4023L138.789 33.3242C138.802 33.6628 138.9 33.9557 139.082 34.2031C139.277 34.4375 139.551 34.6198 139.902 34.75C140.267 34.8802 140.566 34.9779 140.801 35.043C141.035 35.0951 141.341 35.1471 141.719 35.1992C141.771 35.4596 141.797 35.6354 141.797 35.7266C141.797 35.8307 141.771 35.9609 141.719 36.1172C140.039 36.0391 138.49 36 137.07 36C135.69 36 134.16 36.0391 132.48 36.1172C132.428 35.9089 132.402 35.7526 132.402 35.6484C132.402 35.5573 132.428 35.4076 132.48 35.1992C132.819 35.1471 133.099 35.0951 133.32 35.043C133.555 34.9779 133.815 34.8802 134.102 34.75C134.401 34.6198 134.622 34.4375 134.766 34.2031C134.922 33.9557 135 33.6628 135 33.3242L135.039 24.0469C135.039 21.6901 134.329 20.5117 132.91 20.5117C131.582 20.5117 129.72 21.3971 127.324 23.168C127.324 26.957 127.376 30.3424 127.48 33.3242C127.493 33.6628 127.591 33.9557 127.773 34.2031C127.969 34.4375 128.242 34.6198 128.594 34.75C128.945 34.8802 129.238 34.9779 129.473 35.043C129.707 35.0951 130.013 35.1471 130.391 35.1992ZM159.609 25.6484H148.965C148.913 26.4297 148.887 27.1198 148.887 27.7188C148.926 29.6589 149.492 31.2148 150.586 32.3867C151.68 33.5456 153.145 34.125 154.98 34.125C155.475 34.125 155.938 34.0729 156.367 33.9688C156.797 33.8516 157.148 33.7214 157.422 33.5781C157.708 33.4349 158.001 33.2266 158.301 32.9531C158.6 32.6797 158.815 32.4648 158.945 32.3086C159.089 32.1393 159.277 31.8919 159.512 31.5664C159.746 31.2279 159.902 31.013 159.98 30.9219C160.293 30.987 160.547 31.1302 160.742 31.3516C160.091 33.0964 159.082 34.4049 157.715 35.2773C156.348 36.1367 154.863 36.5664 153.262 36.5664C152.467 36.5664 151.693 36.4622 150.938 36.2539C150.195 36.0586 149.473 35.7331 148.77 35.2773C148.066 34.8216 147.454 34.2617 146.934 33.5977C146.413 32.9206 145.996 32.0807 145.684 31.0781C145.371 30.0625 145.215 28.9427 145.215 27.7188C145.215 24.9714 146.055 22.7057 147.734 20.9219C149.414 19.138 151.478 18.2461 153.926 18.2461C155.007 18.2461 155.944 18.4023 156.738 18.7148C157.546 19.0143 158.171 19.4245 158.613 19.9453C159.069 20.4661 159.401 21.0391 159.609 21.6641C159.831 22.276 159.941 22.9336 159.941 23.6367C159.941 24.2878 159.831 24.9583 159.609 25.6484ZM153.457 19.5156C152.559 19.5156 151.706 19.9128 150.898 20.707C150.104 21.5013 149.531 22.7057 149.18 24.3203H156.211C156.341 23.8255 156.406 23.3958 156.406 23.0312C156.406 22.0156 156.172 21.1758 155.703 20.5117C155.234 19.8477 154.486 19.5156 153.457 19.5156Z" fill="black"/>
<path d="M11.5234 7.32812L11.5591 6.32876L10.7497 6.29985L10.5533 7.08559L11.5234 7.32812ZM20.6055 7.44531V8.44541L20.6192 8.44522L20.6055 7.44531ZM25.5273 7.42578L25.5273 8.4258L25.5329 8.42577L25.5273 7.42578ZM31.5234 7.38672L31.5156 6.38675L31.5156 6.38675L31.5234 7.38672ZM36.4844 7.28906L37.4777 7.17389L37.3718 6.26039L36.4526 6.28957L36.4844 7.28906ZM37.1484 10.1016L36.2036 10.4291L36.205 10.433L37.1484 10.1016ZM38.125 12.4844L37.2305 12.9316L37.2344 12.9392L38.125 12.4844ZM39.3555 14.7109L40.2603 15.1367L40.4839 14.6617L40.2197 14.2079L39.3555 14.7109ZM38.6719 15.2383L37.7881 15.7062L38.1979 16.4802L39.0192 16.176L38.6719 15.2383ZM34.4531 10.9219L33.9321 11.7754L33.937 11.7784L34.4531 10.9219ZM30.6836 9.41797L30.4312 10.3856L30.4332 10.3861L30.6836 9.41797ZM25.5664 8.63672L25.6343 7.63902L25.6004 7.63672H25.5664V8.63672ZM20.6055 8.63672V7.63672H19.6351L19.6059 8.60664L20.6055 8.63672ZM20.3516 21.3906H19.3516V22.3906H20.3516V21.3906ZM26.8359 21.3125L27.0148 22.2964L27.0363 22.2925L27.0576 22.2876L26.8359 21.3125ZM27.6367 21L27.1548 20.1238L27.1452 20.1291L27.1357 20.1346L27.6367 21ZM28.3008 20.5898L28.8821 21.4036L28.8921 21.3962L28.3008 20.5898ZM28.9062 19.9648L28.1149 19.3534L28.1108 19.3588L28.9062 19.9648ZM29.9219 18.4023L30.8164 18.8496L30.822 18.8379L29.9219 18.4023ZM30.8398 16.4492L29.9312 16.0317L29.9265 16.042L29.922 16.0523L30.8398 16.4492ZM31.3281 15.3945L31.722 14.4754L30.8345 14.095L30.4233 14.9687L31.3281 15.3945ZM32.0703 15.8828L33.0041 16.2406L33.1261 15.9221L33.0281 15.5955L32.0703 15.8828ZM32.0703 28.1289L32.9647 28.5761L33.1605 28.1846L33.0057 27.7752L32.0703 28.1289ZM31.3281 28.6367L30.4045 29.02L30.7787 29.9217L31.6891 29.5693L31.3281 28.6367ZM29.5117 24.7891L30.354 24.25L30.349 24.2421L30.3438 24.2344L29.5117 24.7891ZM25.918 22.6016L25.9271 21.6016H25.918V22.6016ZM20.3516 22.6016V21.6016H19.3516V22.6016H20.3516ZM20.5664 33.3242L19.5669 33.3571L19.5671 33.3627L20.5664 33.3242ZM21.0156 34.2031L20.362 34.9599L20.3721 34.9687L20.3824 34.9771L21.0156 34.2031ZM22.2461 34.75L22.0091 35.7215L22.0145 35.7228L22.2461 34.75ZM23.6133 35.043L23.4375 36.0274L23.457 36.0309L23.4766 36.0336L23.6133 35.043ZM25.0781 35.1992L26.0587 35.0031L25.9117 34.2679L25.1648 34.203L25.0781 35.1992ZM25.0781 36.1172L25.0429 37.1166L25.7903 37.1429L26.0268 36.4334L25.0781 36.1172ZM11.4844 36.1172L10.5357 36.4334L10.7723 37.1433L11.5201 37.1166L11.4844 36.1172ZM11.4844 35.1992L11.3849 34.2042L10.6489 34.2778L10.5038 35.0031L11.4844 35.1992ZM13.3789 34.9648L13.2245 33.9768L13.2197 33.9776L13.3789 34.9648ZM14.375 34.75L14.6761 35.7036L14.6908 35.6989L14.7054 35.6939L14.375 34.75ZM15.7812 33.9492L14.9949 33.3314L14.9808 33.3494L14.9675 33.368L15.7812 33.9492ZM15.9961 33.3242L14.9968 33.2859L14.9961 33.3051V33.3242H15.9961ZM16.0352 10.082L15.0359 10.1205L15.0361 10.1245L16.0352 10.082ZM15.5859 9.22266L14.9351 9.98191L14.9438 9.98936L14.9527 9.99661L15.5859 9.22266ZM12.9883 8.42188L12.8362 9.41025L12.8549 9.41312L12.8737 9.41528L12.9883 8.42188ZM11.5234 8.24609L10.5473 8.46302L10.7038 9.16765L11.4219 9.24093L11.5234 8.24609ZM11.4877 8.32749C13.6881 8.40607 15.9786 8.44531 18.3594 8.44531V6.44531C16.0005 6.44531 13.7338 6.40643 11.5591 6.32876L11.4877 8.32749ZM18.3594 8.44531H20.6055V6.44531H18.3594V8.44531ZM20.6192 8.44522C21.5621 8.4323 23.1965 8.42578 25.5273 8.42578V6.42578C23.1967 6.42578 21.5499 6.43228 20.5918 6.44541L20.6192 8.44522ZM25.5329 8.42577C27.8771 8.41274 29.8766 8.39972 31.5313 8.38669L31.5156 6.38675C29.8629 6.39976 27.8651 6.41278 25.5218 6.4258L25.5329 8.42577ZM31.5312 8.38669C33.2058 8.37361 34.8674 8.3409 36.5161 8.28856L36.4526 6.28957C34.8201 6.34139 33.1744 6.37379 31.5156 6.38675L31.5312 8.38669ZM35.491 7.40423C35.6047 8.38442 35.8445 9.39329 36.2036 10.4291L38.0933 9.77402C37.7753 8.85671 37.5724 7.99058 37.4777 7.17389L35.491 7.40423ZM36.205 10.433C36.5517 11.4199 36.8929 12.2563 37.2306 12.9316L39.0194 12.0372C38.7321 11.4625 38.4223 10.7103 38.0919 9.77008L36.205 10.433ZM37.2344 12.9392C37.5581 13.5731 37.978 14.3324 38.4912 15.214L40.2197 14.2079C39.7173 13.3447 39.3169 12.6196 39.0156 12.0296L37.2344 12.9392ZM38.4507 14.2851C38.4771 14.2289 38.506 14.209 38.4956 14.217C38.4816 14.2278 38.4326 14.2605 38.3246 14.3005L39.0192 16.176C39.4886 16.0022 39.9975 15.6951 40.2603 15.1367L38.4507 14.2851ZM39.5557 14.7704C39.0453 13.8064 38.4249 12.9419 37.6932 12.1816L36.2521 13.5684C36.8486 14.1883 37.3609 14.8993 37.7881 15.7062L39.5557 14.7704ZM37.6932 12.1816C36.9561 11.4155 36.0428 10.7123 34.9692 10.0654L33.937 11.7784C34.8947 12.3554 35.6611 12.9543 36.2521 13.5684L37.6932 12.1816ZM34.9741 10.0683C33.8651 9.39136 32.5105 8.85754 30.934 8.44982L30.4332 10.3861C31.8775 10.7596 33.036 11.2284 33.9321 11.7754L34.9741 10.0683ZM30.936 8.45035C29.3659 8.04074 27.5965 7.77251 25.6343 7.63902L25.4985 9.63441C27.3644 9.76134 29.0065 10.0139 30.4312 10.3856L30.936 8.45035ZM25.5664 7.63672H20.6055V9.63672H25.5664V7.63672ZM19.6059 8.60664C19.4366 14.2341 19.3516 18.4976 19.3516 21.3906H21.3516C21.3516 18.5285 21.4358 14.2893 21.605 8.6668L19.6059 8.60664ZM20.3516 22.3906H25.918V20.3906H20.3516V22.3906ZM25.918 22.3906C26.2966 22.3906 26.6629 22.3604 27.0148 22.2964L26.6571 20.3286C26.4361 20.3688 26.1904 20.3906 25.918 20.3906V22.3906ZM27.0576 22.2876C27.4394 22.2008 27.8009 22.0605 28.1378 21.8654L27.1357 20.1346C26.9778 20.226 26.8054 20.2939 26.6143 20.3374L27.0576 22.2876ZM28.1186 21.8762C28.403 21.7198 28.6595 21.5625 28.882 21.4036L27.7195 19.7761C27.5774 19.8776 27.3913 19.9937 27.1548 20.1238L28.1186 21.8762ZM28.8921 21.3962C29.1896 21.1781 29.4575 20.8914 29.7017 20.5709L28.1108 19.3588C27.9383 19.5852 27.8026 19.7151 27.7094 19.7834L28.8921 21.3962ZM29.6975 20.5763C29.9225 20.2851 30.1068 20.0397 30.2473 19.843L28.6199 18.6805C28.5 18.8483 28.3327 19.0716 28.115 19.3534L29.6975 20.5763ZM30.2473 19.843C30.4244 19.5951 30.6152 19.2518 30.8163 18.8496L29.0274 17.9551C28.838 18.3341 28.7032 18.5637 28.6199 18.6805L30.2473 19.843ZM30.822 18.8379C31.0168 18.4353 31.1643 18.134 31.2655 17.9316L29.4767 17.0372C29.3695 17.2514 29.2175 17.5621 29.0217 17.9668L30.822 18.8379ZM31.2655 17.9316C31.3831 17.6964 31.5488 17.3293 31.7577 16.8461L29.922 16.0523C29.7142 16.5327 29.5674 16.8557 29.4767 17.0372L31.2655 17.9316ZM31.7485 16.8667C31.9697 16.3853 32.1309 16.0373 32.2329 15.8203L30.4233 14.9687C30.3171 15.1945 30.1527 15.5496 29.9312 16.0317L31.7485 16.8667ZM30.9342 16.3137C31.0328 16.3559 31.113 16.3934 31.1771 16.426C31.2421 16.4591 31.2831 16.4835 31.3059 16.4985C31.3318 16.5156 31.318 16.5099 31.2869 16.4782C31.2702 16.461 31.2417 16.4295 31.2108 16.3826C31.18 16.3358 31.1409 16.2647 31.1125 16.1702L33.0281 15.5955C32.9543 15.3493 32.8132 15.1784 32.717 15.0799C32.6143 14.975 32.5028 14.892 32.4051 14.8277C32.2102 14.6995 31.9732 14.583 31.722 14.4754L30.9342 16.3137ZM31.1365 15.5251C30.3262 17.6401 29.918 19.7989 29.918 21.9961H31.918C31.918 20.0526 32.278 18.1359 33.0041 16.2406L31.1365 15.5251ZM29.918 21.9961C29.918 24.1809 30.3264 26.3447 31.135 28.4827L33.0057 27.7752C32.2778 25.8506 31.918 23.9259 31.918 21.9961H29.918ZM31.1759 27.6817C31.2062 27.621 31.2379 27.5845 31.2523 27.5695C31.2665 27.5548 31.2696 27.5551 31.2517 27.5673C31.2128 27.5939 31.1259 27.6427 30.9671 27.7042L31.6891 29.5693C31.934 29.4745 32.1727 29.3605 32.3811 29.2179C32.5836 29.0793 32.8157 28.8742 32.9647 28.5761L31.1759 27.6817ZM32.2518 28.2534C31.4604 26.3463 30.8247 24.9855 30.354 24.25L28.6694 25.3281C29.0321 25.8947 29.6074 27.099 30.4045 29.02L32.2518 28.2534ZM30.3438 24.2344C29.2411 22.5804 27.7635 21.6183 25.9271 21.6016L25.9089 23.6015C26.9371 23.6109 27.8552 24.1071 28.6797 25.3438L30.3438 24.2344ZM25.918 21.6016H20.3516V23.6016H25.918V21.6016ZM19.3516 22.6016C19.3516 25.4163 19.4235 29.0025 19.5669 33.3571L21.5659 33.2913C21.4228 28.948 21.3516 25.3858 21.3516 22.6016H19.3516ZM19.5671 33.3627C19.5921 34.0122 19.8929 34.5548 20.362 34.9599L21.6692 33.4463C21.5654 33.3566 21.5667 33.3133 21.5657 33.2858L19.5671 33.3627ZM20.3824 34.9771C20.8268 35.3407 21.3946 35.5716 22.0091 35.7215L22.483 33.7785C22.0299 33.668 21.7774 33.5343 21.6489 33.4292L20.3824 34.9771ZM22.0145 35.7228C22.5714 35.8554 23.0473 35.9577 23.4375 36.0274L23.7891 34.0585C23.4501 33.998 23.0145 33.905 22.4777 33.7772L22.0145 35.7228ZM23.4766 36.0336C23.8775 36.0889 24.3842 36.1426 24.9915 36.1955L25.1648 34.203C24.5742 34.1516 24.1043 34.1012 23.7499 34.0523L23.4766 36.0336ZM24.0975 35.3953C24.1217 35.5163 24.1378 35.6075 24.1475 35.6729C24.1523 35.7054 24.1549 35.7269 24.1561 35.7394C24.1575 35.754 24.1562 35.7474 24.1562 35.7266H26.1562C26.1562 35.5206 26.1079 35.249 26.0587 35.0031L24.0975 35.3953ZM24.1562 35.7266C24.1562 35.6977 24.1596 35.689 24.1561 35.7062C24.1529 35.7224 24.1453 35.7533 24.1294 35.801L26.0268 36.4334C26.0955 36.2273 26.1562 35.982 26.1562 35.7266H24.1562ZM25.1134 35.1178C22.8876 35.0393 20.6102 35 18.2812 35V37C20.5877 37 22.8416 37.0389 25.0429 37.1166L25.1134 35.1178ZM18.2812 35C15.9264 35 13.6489 35.0392 11.4487 35.1178L11.5201 37.1166C13.6949 37.0389 15.9486 37 18.2812 37V35ZM12.4331 35.801C12.4172 35.7533 12.4096 35.7224 12.4064 35.7062C12.4029 35.689 12.4062 35.6977 12.4062 35.7266H10.4062C10.4062 35.982 10.467 36.2273 10.5357 36.4334L12.4331 35.801ZM12.4062 35.7266C12.4062 35.7474 12.405 35.754 12.4064 35.7394C12.4076 35.7269 12.4102 35.7054 12.415 35.6729C12.4247 35.6075 12.4408 35.5163 12.465 35.3953L10.5038 35.0031C10.4546 35.249 10.4062 35.5206 10.4062 35.7266H12.4062ZM11.5839 36.1943C11.9761 36.155 12.2927 36.1221 12.5323 36.0954L12.3114 34.1077C12.0823 34.1331 11.7739 34.1653 11.3849 34.2042L11.5839 36.1943ZM12.5323 36.0954C12.7906 36.0667 13.1282 36.0182 13.5381 35.9521L13.2197 33.9776C12.8224 34.0417 12.5219 34.0843 12.3114 34.1077L12.5323 36.0954ZM13.5333 35.9529C13.973 35.8841 14.3605 35.8032 14.6761 35.7036L14.0739 33.7964C13.8947 33.853 13.6181 33.9153 13.2245 33.9768L13.5333 35.9529ZM14.7054 35.6939C15.0028 35.5898 15.3029 35.465 15.6057 35.3208L14.7458 33.5151C14.5017 33.6313 14.2681 33.7279 14.0446 33.8061L14.7054 35.6939ZM15.6057 35.3208C15.9806 35.1423 16.3376 34.8909 16.595 34.5305L14.9675 33.368C14.9645 33.3722 14.9178 33.4332 14.7458 33.5151L15.6057 35.3208ZM16.5676 34.567C16.8509 34.2065 16.9961 33.78 16.9961 33.3242H14.9961C14.9961 33.3317 14.9955 33.3352 14.9955 33.3354C14.9955 33.3356 14.9958 33.3339 14.9967 33.3312C14.9976 33.3284 14.9986 33.3265 14.999 33.3257C14.9994 33.325 14.9985 33.3269 14.9949 33.3314L16.5676 34.567ZM16.9954 33.3625C17.1521 29.2741 17.2305 25.1532 17.2305 21H15.2305C15.2305 25.128 15.1526 29.2233 14.9968 33.2859L16.9954 33.3625ZM17.2305 21C17.2305 16.7719 17.1652 13.1177 17.0343 10.0395L15.0361 10.1245C15.1655 13.1661 15.2305 16.7906 15.2305 21H17.2305ZM17.0344 10.0436C17.0093 9.39032 16.7043 8.84565 16.2192 8.4487L14.9527 9.99661C15.0066 10.0407 15.0229 10.069 15.0269 10.0765C15.0297 10.082 15.0348 10.0921 15.0359 10.1205L17.0344 10.0436ZM16.2367 8.4634C15.7894 8.07998 15.1953 7.84896 14.5625 7.70177L14.1094 9.64979C14.5963 9.76302 14.8356 9.89658 14.9351 9.98191L16.2367 8.4634ZM14.5625 7.70177C13.987 7.56794 13.4959 7.47381 13.1029 7.42847L12.8737 9.41528C13.1577 9.44806 13.5651 9.5232 14.1094 9.64979L14.5625 7.70177ZM13.1403 7.4335C12.7764 7.37751 12.268 7.31688 11.625 7.25126L11.4219 9.24093C12.0549 9.30551 12.5231 9.36208 12.8362 9.41025L13.1403 7.4335ZM12.4996 8.02916C12.4762 7.92357 12.4611 7.84521 12.4523 7.79025C12.4479 7.76311 12.4459 7.74613 12.445 7.73757C12.4439 7.72746 12.4453 7.73609 12.4453 7.75781H10.4453C10.4453 7.97319 10.4969 8.23648 10.5473 8.46302L12.4996 8.02916ZM12.4453 7.75781C12.4453 7.78988 12.4429 7.80761 12.4433 7.80385C12.4436 7.80211 12.4449 7.79174 12.4487 7.77068C12.4565 7.72785 12.4706 7.66263 12.4936 7.57066L10.5533 7.08559C10.5044 7.28111 10.4453 7.53885 10.4453 7.75781H12.4453ZM53.6523 18.9297L53.2473 19.844L53.2515 19.8458L53.6523 18.9297ZM57.9883 23.7344L57.0429 24.0604L57.0441 24.0637L57.9883 23.7344ZM56.2891 34.0078L55.5457 33.3388L55.5404 33.3449L56.2891 34.0078ZM46.6992 35.9023L46.2942 36.8166L46.3011 36.8197L46.3081 36.8227L46.6992 35.9023ZM44.0625 34.0078L43.3151 34.6722L43.3204 34.6781L44.0625 34.0078ZM42.3633 31.0977L41.419 31.427L41.4225 31.4368L42.3633 31.0977ZM42.3633 23.7344L43.3075 24.0637L43.3087 24.0604L42.3633 23.7344ZM44.0234 20.8242L43.2813 20.1539L43.2754 20.1606L44.0234 20.8242ZM46.9922 21.4492L46.1408 20.9246L46.137 20.9309L46.9922 21.4492ZM46.9922 33.3633L46.1369 33.8816L46.1432 33.8917L46.9922 33.3633ZM53.3398 33.3438L52.4885 32.8192L52.4846 32.8254L53.3398 33.3438ZM51.9727 20.0039L51.452 20.8577L51.4597 20.8624L51.4675 20.8669L51.9727 20.0039ZM50.1758 19.2461C51.3456 19.2461 52.3635 19.4524 53.2473 19.844L54.0574 18.0154C52.8839 17.4955 51.5841 17.2461 50.1758 17.2461V19.2461ZM53.2515 19.8458C54.1693 20.2474 54.9367 20.7972 55.5665 21.4945L57.0507 20.1539C56.2222 19.2367 55.2187 18.5235 54.0532 18.0135L53.2515 19.8458ZM55.5665 21.4945C56.1966 22.1922 56.6917 23.0418 57.0429 24.0604L58.9337 23.4084C58.5036 22.1613 57.8789 21.0708 57.0507 20.1539L55.5665 21.4945ZM57.0441 24.0637C57.3936 25.0658 57.5742 26.1769 57.5742 27.4062H59.5742C59.5742 25.9793 59.3642 24.6426 58.9325 23.405L57.0441 24.0637ZM57.5742 27.4062C57.5742 29.9169 56.8736 31.8634 55.5458 33.3388L57.0324 34.6768C58.7514 32.7668 59.5742 30.3122 59.5742 27.4062H57.5742ZM55.5404 33.3449C54.2448 34.8079 52.4947 35.5664 50.1758 35.5664V37.5664C52.9871 37.5664 55.3124 36.6191 57.0377 34.6708L55.5404 33.3449ZM50.1758 35.5664C49.0171 35.5664 47.9935 35.3659 47.0904 34.982L46.3081 36.8227C47.4883 37.3243 48.7824 37.5664 50.1758 37.5664V35.5664ZM47.1043 34.9881C46.1994 34.5871 45.4365 34.0372 44.8046 33.3375L43.3204 34.6781C44.1468 35.593 45.1418 36.3061 46.2942 36.8166L47.1043 34.9881ZM44.8099 33.3434C44.1722 32.626 43.6682 31.7688 43.304 30.7585L41.4225 31.4368C41.8657 32.6661 42.4945 33.749 43.3151 34.6722L44.8099 33.3434ZM43.3075 30.7683C42.9583 29.7673 42.7773 28.6498 42.7773 27.4062H40.7773C40.7773 28.845 40.987 30.1885 41.4191 31.427L43.3075 30.7683ZM42.7773 27.4062C42.7773 26.1769 42.9579 25.0658 43.3075 24.0637L41.4191 23.405C40.9874 24.6426 40.7773 25.9793 40.7773 27.4062H42.7773ZM43.3087 24.0604C43.6611 23.0382 44.1519 22.1863 44.7715 21.4878L43.2754 20.1606C42.4627 21.0767 41.8467 22.1649 41.4179 23.4084L43.3087 24.0604ZM44.7655 21.4945C45.3954 20.7972 46.1627 20.2474 47.0805 19.8458L46.2789 18.0135C45.1133 18.5235 44.1098 19.2367 43.2813 20.1539L44.7655 21.4945ZM47.0805 19.8458C47.9799 19.4523 49.0063 19.2461 50.1758 19.2461V17.2461C48.7672 17.2461 47.4628 17.4956 46.2789 18.0135L47.0805 19.8458ZM50.1758 18.5156C48.4467 18.5156 47.0869 19.3891 46.1408 20.9246L47.8436 21.9738C48.486 20.9312 49.2487 20.5156 50.1758 20.5156V18.5156ZM46.137 20.9309C45.2128 22.4558 44.8203 24.6645 44.8203 27.4062H46.8203C46.8203 24.7834 47.2091 23.0208 47.8474 21.9675L46.137 20.9309ZM44.8203 27.4062C44.8203 30.148 45.2128 32.3567 46.137 33.8816L47.8474 32.845C47.2091 31.7917 46.8203 30.0291 46.8203 27.4062H44.8203ZM46.1432 33.8917C47.0915 35.4153 48.4515 36.2773 50.1758 36.2773V34.2773C49.2438 34.2773 48.4814 33.8634 47.8412 32.8348L46.1432 33.8917ZM50.1758 36.2773C51.9063 36.2773 53.2617 35.4021 54.195 33.8621L52.4846 32.8254C51.8555 33.8635 51.1015 34.2773 50.1758 34.2773V36.2773ZM54.1912 33.8683C55.1315 32.3422 55.5312 30.1378 55.5312 27.4062H53.5312C53.5312 30.0133 53.1367 31.7672 52.4885 32.8192L54.1912 33.8683ZM55.5312 27.4062C55.5312 26.0168 55.4236 24.7793 55.1973 23.7041L53.2402 24.1162C53.4305 25.0202 53.5312 26.1134 53.5312 27.4062H55.5312ZM55.1973 23.7041C54.9741 22.6439 54.6506 21.7159 54.2049 20.9475L52.4748 21.9509C52.7843 22.4846 53.0467 23.1972 53.2402 24.1162L55.1973 23.7041ZM54.2049 20.9475C53.7593 20.1792 53.19 19.5578 52.4778 19.1409L51.4675 20.8669C51.823 21.075 52.1652 21.4172 52.4748 21.9509L54.2049 20.9475ZM52.4933 19.1501C51.7928 18.723 51.0116 18.5156 50.1758 18.5156V20.5156C50.6681 20.5156 51.0849 20.6338 51.452 20.8577L52.4933 19.1501ZM62.4609 19.9258L62.3584 18.9311L61.6609 19.003L61.4908 19.6832L62.4609 19.9258ZM69.0625 18.3242L69.4339 17.3957L69.0484 17.2415L68.667 17.4057L69.0625 18.3242ZM69.7461 18.832H70.7461V18.5452L70.5941 18.302L69.7461 18.832ZM69.7461 22.1914H68.7461L70.6302 22.6587L69.7461 22.1914ZM71.8945 19.5352L71.2289 18.7888L71.2239 18.7934L71.8945 19.5352ZM76.7969 18.9492L76.0995 19.6659L76.1093 19.6755L76.1194 19.6848L76.7969 18.9492ZM73.5547 22.6797L72.8364 23.3755L72.8475 23.3869L72.8589 23.3979L73.5547 22.6797ZM72.8906 21.0391L73.889 20.9815L73.8069 19.5584L72.4967 20.1199L72.8906 21.0391ZM71.0156 22.6016L70.2615 21.9448L70.2555 21.9518L71.0156 22.6016ZM69.7461 25.0039L68.7649 24.8109L68.7461 24.9065V25.0039H69.7461ZM69.9023 33.3242L70.9016 33.2858L70.9016 33.2848L69.9023 33.3242ZM70.2734 34.2031L69.5475 34.8909L69.5568 34.9007L69.5663 34.9102L70.2734 34.2031ZM71.3086 34.75L71.0339 35.7115L71.3086 34.75ZM72.4414 35.043L72.229 36.0201L72.2494 36.0246L72.2701 36.0282L72.4414 35.043ZM73.6133 35.1992L74.5077 34.752L74.2636 34.2637L73.7208 34.205L73.6133 35.1992ZM73.6133 36.1172L73.5733 37.1164L74.2188 37.1422L74.5077 36.5644L73.6133 36.1172ZM62.8516 36.1172L61.8814 36.3597L62.0798 37.1533L62.897 37.1162L62.8516 36.1172ZM62.8516 35.1992L62.7312 34.2065L62.0129 34.2936L61.871 35.0031L62.8516 35.1992ZM63.9062 35.043L64.0934 36.0253L64.1157 36.021L64.1379 36.0158L63.9062 35.043ZM65.8398 34.2031L66.5873 34.8675L66.5961 34.8575L66.6048 34.8473L65.8398 34.2031ZM66.1719 33.3242L65.1727 33.2838L65.1726 33.2858L66.1719 33.3242ZM66.2109 21.6445H67.2109V21.0851L66.7342 20.7924L66.2109 21.6445ZM62.4609 20.8438L61.4908 21.0863L61.6716 21.8097L62.4165 21.8428L62.4609 20.8438ZM62.5635 20.9205C65.1669 20.6521 67.4703 20.0985 69.458 19.2427L68.667 17.4057C66.9047 18.1645 64.807 18.6786 62.3584 18.9311L62.5635 20.9205ZM68.6911 19.2527C68.9008 19.3366 68.9193 19.396 68.8981 19.362L70.5941 18.302C70.3124 17.8514 69.8752 17.5723 69.4339 17.3957L68.6911 19.2527ZM68.7461 18.832V22.1914H70.7461V18.832H68.7461ZM70.6302 22.6587C71.0459 21.8722 71.681 21.0763 72.5652 20.2769L71.2239 18.7934C70.207 19.7128 69.4098 20.6877 68.862 21.7241L70.6302 22.6587ZM72.5601 20.2815C73.3862 19.5447 74.1612 19.2461 74.9023 19.2461V17.2461C73.5602 17.2461 72.33 17.8068 71.2289 18.7889L72.5601 20.2815ZM74.9023 19.2461C75.4686 19.2461 75.8347 19.4083 76.0995 19.6659L77.4942 18.2325C76.7955 17.5527 75.8986 17.2461 74.9023 17.2461V19.2461ZM76.1194 19.6848C76.3679 19.9136 76.5391 20.2553 76.5391 20.8438H78.5391C78.5391 19.8176 78.2154 18.8963 77.4744 18.2137L76.1194 19.6848ZM76.5391 20.8438C76.5391 21.4035 76.3808 21.7138 76.1695 21.913L77.5415 23.3682C78.2416 22.7081 78.5391 21.8205 78.5391 20.8438H76.5391ZM76.1695 21.913C75.9189 22.1493 75.6 22.2852 75.1367 22.2852V24.2852C76.0536 24.2852 76.8806 23.9913 77.5415 23.3682L76.1695 21.913ZM75.1367 22.2852C74.7301 22.2852 74.4612 22.1656 74.2505 21.9614L72.8589 23.3979C73.4815 24.0011 74.2673 24.2852 75.1367 24.2852V22.2852ZM74.2729 21.9839C74.0637 21.7679 73.9167 21.4619 73.889 20.9815L71.8923 21.0967C71.9427 21.9704 72.2384 22.7581 72.8364 23.3755L74.2729 21.9839ZM72.4967 20.1199C71.7414 20.4436 70.9966 21.1008 70.2615 21.9448L71.7697 23.2583C72.4409 22.4877 72.9461 22.1032 73.2845 21.9582L72.4967 20.1199ZM70.2555 21.9518C69.4875 22.8502 68.9631 23.8033 68.7649 24.8109L70.7273 25.1969C70.8416 24.616 71.1636 23.9675 71.7757 23.2513L70.2555 21.9518ZM68.7461 25.0039C68.7461 27.9194 68.7984 30.7061 68.9031 33.3636L70.9016 33.2848C70.798 30.6559 70.7461 27.8957 70.7461 25.0039H68.7461ZM68.9031 33.3627C68.9255 33.9452 69.1473 34.4685 69.5475 34.8909L70.9994 33.5154C70.9308 33.443 70.9052 33.3803 70.9016 33.2858L68.9031 33.3627ZM69.5663 34.9102C69.9615 35.3054 70.4808 35.5535 71.0339 35.7115L71.5833 33.7885C71.225 33.6861 71.0541 33.5696 70.9805 33.496L69.5663 34.9102ZM71.0339 35.7115C71.5004 35.8448 71.9005 35.9487 72.229 36.0201L72.6538 34.0658C72.3833 34.007 72.0282 33.9156 71.5833 33.7885L71.0339 35.7115ZM72.2701 36.0282C72.5993 36.0854 73.0136 36.1402 73.5058 36.1934L73.7208 34.205C73.2494 34.1541 72.8824 34.1047 72.6127 34.0578L72.2701 36.0282ZM72.7189 35.6464C72.7298 35.6684 72.7305 35.6785 72.7305 35.6875H74.7305C74.7305 35.3579 74.653 35.0425 74.5077 34.752L72.7189 35.6464ZM72.7305 35.6875C72.7305 35.6523 72.7358 35.6318 72.7364 35.6295C72.7367 35.6282 72.736 35.631 72.7333 35.638C72.7306 35.645 72.726 35.6557 72.7189 35.67L74.5077 36.5644C74.6326 36.3145 74.7305 36.0167 74.7305 35.6875H72.7305ZM73.6532 35.118C71.6871 35.0393 69.7402 35 67.8125 35V37C69.713 37 71.6332 37.0388 73.5733 37.1164L73.6532 35.118ZM67.8125 35C66.2076 35 64.5388 35.0395 62.8062 35.1182L62.897 37.1162C64.6018 37.0387 66.2403 37 67.8125 37V35ZM63.8217 35.8747C63.7987 35.7827 63.7846 35.7175 63.7768 35.6746C63.773 35.6536 63.7717 35.6432 63.7715 35.6415C63.771 35.6377 63.7734 35.6554 63.7734 35.6875H61.7734C61.7734 35.9065 61.8325 36.1642 61.8814 36.3597L63.8217 35.8747ZM63.7734 35.6875C63.7734 35.7272 63.7702 35.7484 63.7719 35.7339C63.7729 35.7251 63.7753 35.7063 63.7804 35.6746C63.7905 35.6112 63.8073 35.5195 63.8321 35.3953L61.871 35.0031C61.8437 35.1394 61.8214 35.2592 61.8055 35.3586C61.793 35.4369 61.7734 35.5659 61.7734 35.6875H63.7734ZM62.9719 36.192C63.4132 36.1385 63.7892 36.0832 64.0934 36.0253L63.7191 34.0606C63.4764 34.1069 63.1493 34.1558 62.7312 34.2065L62.9719 36.192ZM64.1379 36.0158C64.446 35.9424 64.8115 35.8363 65.2289 35.7017L64.6149 33.7983C64.225 33.9241 63.9134 34.0133 63.6746 34.0702L64.1379 36.0158ZM65.2289 35.7017C65.7446 35.5353 66.2257 35.2742 66.5873 34.8675L65.0924 33.5388C65.0373 33.6008 64.9064 33.7043 64.6149 33.7983L65.2289 35.7017ZM66.6048 34.8473C66.9636 34.4212 67.15 33.9122 67.1711 33.3627L65.1726 33.2858C65.1677 33.4133 65.1328 33.4903 65.0749 33.559L66.6048 34.8473ZM67.1711 33.3646C67.2239 32.0578 67.25 30.481 67.25 28.6367H65.25C65.25 30.4643 65.2241 32.0125 65.1727 33.2838L67.1711 33.3646ZM67.25 28.6367C67.25 28.0199 67.2435 26.9742 67.2304 25.5029L65.2305 25.5206C65.2435 26.9919 65.25 28.0296 65.25 28.6367H67.25ZM67.2304 25.5029C67.2174 24.0336 67.2109 22.7476 67.2109 21.6445H65.2109C65.2109 22.755 65.2175 24.0472 65.2305 25.5206L67.2304 25.5029ZM66.7342 20.7924C65.7625 20.1957 64.2927 19.9242 62.5053 19.8447L62.4165 21.8428C64.1448 21.9196 65.175 22.1819 65.6877 22.4967L66.7342 20.7924ZM63.4311 20.6012C63.4101 20.5171 63.3971 20.4534 63.3898 20.4074C63.382 20.3591 63.3828 20.3447 63.3828 20.3555H61.3828C61.3828 20.5959 61.4324 20.8527 61.4908 21.0863L63.4311 20.6012ZM63.3828 20.3555C63.3828 20.3875 63.3804 20.4053 63.3808 20.4015C63.3811 20.3998 63.3824 20.3894 63.3862 20.3683C63.394 20.3255 63.4081 20.2603 63.4311 20.1683L61.4908 19.6832C61.4419 19.8788 61.3828 20.1365 61.3828 20.3555H63.3828ZM85.5859 14.9258L85.2145 13.9973L84.896 14.1247L84.7227 14.4209L85.5859 14.9258ZM86.5625 14.9258H87.5625V14.1715L86.8372 13.9643L86.5625 14.9258ZM86.5625 19.2031H85.5625V20.2031H86.5625V19.2031ZM92.4805 19.2031L93.4089 18.8317L93.1575 18.2031H92.4805V19.2031ZM92.4805 20.6094V21.6094H93.1735L93.4168 20.9605L92.4805 20.6094ZM86.5625 20.6094V19.6094H85.5625V20.6094H86.5625ZM91.2305 33.7148L90.7656 32.8294L90.7564 32.8344L91.2305 33.7148ZM92.9492 32.4844L93.0684 31.4915L92.626 31.4384L92.2907 31.7318L92.9492 32.4844ZM93.5938 32.9531L94.4674 33.4397L94.6941 33.0326L94.5282 32.5971L93.5938 32.9531ZM82.6367 20.6094H83.6367V19.6094H82.6367V20.6094ZM80.2344 20.6094L79.2582 20.8263L79.4322 21.6094H80.2344V20.6094ZM80.2344 19.7109L79.7872 18.8165L79.3399 19.0401L79.2505 19.5321L80.2344 19.7109ZM81.6602 18.9492L82.1747 19.8068L82.1843 19.8009L81.6602 18.9492ZM82.9297 18.0703L82.3427 17.2606L82.333 17.2679L82.9297 18.0703ZM84.3359 16.7422L83.5646 16.1058L83.5629 16.1079L84.3359 16.7422ZM85.9573 15.8543C85.9477 15.8581 85.9674 15.8477 86.0352 15.8477V13.8477C85.7643 13.8477 85.4846 13.8893 85.2145 13.9973L85.9573 15.8543ZM86.0352 15.8477C86.1011 15.8477 86.1843 15.8577 86.2878 15.8873L86.8372 13.9643C86.5761 13.8897 86.3077 13.8477 86.0352 13.8477V15.8477ZM85.5625 14.9258V19.2031H87.5625V14.9258H85.5625ZM86.5625 20.2031H92.4805V18.2031H86.5625V20.2031ZM91.552 19.5745C91.5691 19.6174 91.5977 19.7234 91.5977 19.9258H93.5977C93.5977 19.5552 93.548 19.1795 93.4089 18.8317L91.552 19.5745ZM91.5977 19.9258C91.5977 20.0666 91.5757 20.1741 91.5441 20.2583L93.4168 20.9605C93.5415 20.628 93.5977 20.2797 93.5977 19.9258H91.5977ZM92.4805 19.6094H86.5625V21.6094H92.4805V19.6094ZM85.5625 20.6094V31.0391H87.5625V20.6094H85.5625ZM85.5625 31.0391C85.5625 32.2016 85.8274 33.26 86.5337 34.0297C87.255 34.8156 88.2732 35.125 89.3945 35.125V33.125C88.6278 33.125 88.23 32.9201 88.0073 32.6774C87.7696 32.4184 87.5625 31.9338 87.5625 31.0391H85.5625ZM89.3945 35.125C90.2368 35.125 91.0199 34.964 91.7046 34.5953L90.7564 32.8344C90.4254 33.0126 89.9846 33.125 89.3945 33.125V35.125ZM91.6953 34.6002C92.3076 34.2788 92.9457 33.8162 93.6077 33.237L92.2907 31.7318C91.7027 32.2463 91.195 32.604 90.7656 32.8294L91.6953 34.6002ZM92.8301 33.4773C92.8626 33.4812 92.8258 33.4828 92.7663 33.4396C92.7375 33.4186 92.712 33.3932 92.692 33.3661C92.6723 33.3397 92.6628 33.3185 92.6593 33.3091L94.5282 32.5971C94.4144 32.2982 94.2228 32.0258 93.9427 31.8221C93.6684 31.6226 93.3614 31.5267 93.0684 31.4915L92.8301 33.4773ZM92.7201 32.4665C92.2398 33.3289 91.5216 34.0688 90.53 34.6799L91.5793 36.3826C92.8273 35.6135 93.8018 34.6347 94.4674 33.4397L92.7201 32.4665ZM90.53 34.6799C89.5712 35.2708 88.523 35.5664 87.3633 35.5664V37.5664C88.8859 37.5664 90.2986 37.1719 91.5793 36.3826L90.53 34.6799ZM87.3633 35.5664C85.9976 35.5664 85.1372 35.1623 84.5894 34.4989C84.0113 33.799 83.6367 32.6387 83.6367 30.8438H81.6367C81.6367 32.8639 82.0499 34.5649 83.0473 35.7726C84.075 37.0168 85.5779 37.5664 87.3633 37.5664V35.5664ZM83.6367 30.8438V20.6094H81.6367V30.8438H83.6367ZM82.6367 19.6094H80.2344V21.6094H82.6367V19.6094ZM81.2106 20.3924C81.1862 20.2828 81.1703 20.2035 81.161 20.1499C81.1564 20.1233 81.1544 20.1091 81.1539 20.1045C81.1527 20.0952 81.1562 20.1186 81.1562 20.1602H79.1562C79.1562 20.3583 79.2138 20.6265 79.2582 20.8263L81.2106 20.3924ZM81.1562 20.1602C81.1562 20.1958 81.1543 20.2234 81.1535 20.2338C81.1525 20.2472 81.1514 20.2577 81.1508 20.2636C81.1495 20.2753 81.1484 20.2836 81.1481 20.2855C81.1475 20.29 81.1474 20.2901 81.1486 20.2827C81.1508 20.2691 81.1547 20.2454 81.161 20.2094C81.1733 20.1384 81.1923 20.0324 81.2182 19.8898L79.2505 19.5321C79.2243 19.676 79.2043 19.788 79.1906 19.8667C79.1838 19.9056 79.178 19.9397 79.1737 19.9668C79.1716 19.9797 79.1691 19.9959 79.1668 20.0122C79.1658 20.0201 79.164 20.0332 79.1623 20.0486C79.162 20.052 79.1562 20.1005 79.1562 20.1602H81.1562ZM80.6816 20.6054C81.3139 20.2892 81.8161 20.0218 82.1747 19.8067L81.1457 18.0917C80.8532 18.2672 80.4048 18.5077 79.7872 18.8165L80.6816 20.6054ZM82.1843 19.8009C82.5578 19.571 83.0071 19.2589 83.5264 18.8728L82.333 17.2679C81.8367 17.6369 81.4396 17.9108 81.1361 18.0976L82.1843 19.8009ZM83.5167 18.8799C84.1082 18.451 84.6392 17.9491 85.109 17.3765L83.5629 16.1079C83.1993 16.5509 82.7928 16.9344 82.3427 17.2607L83.5167 18.8799ZM85.1073 17.3786C85.5766 16.8097 86.0232 16.1588 86.4491 15.4307L84.7227 14.4209C84.3414 15.0729 83.9546 15.633 83.5646 16.1058L85.1073 17.3786ZM95.3711 18.6758L95.4266 17.6773L94.6014 17.6315L94.401 18.4332L95.3711 18.6758ZM100.391 18.7539L100.334 17.7555L100.332 17.7556L100.391 18.7539ZM101.699 18.6758L102.015 17.7271L101.831 17.6656L101.637 17.6777L101.699 18.6758ZM102.266 19.2812L103.258 19.4053L103.292 19.1313L103.181 18.8785L102.266 19.2812ZM102.188 19.75L101.205 19.5657L101.2 19.5917L101.196 19.6178L102.188 19.75ZM102.109 20.4727L101.113 20.3821L101.112 20.4036L101.111 20.4251L102.109 20.4727ZM102.09 21.4883L103.09 21.4925V21.4883H102.09ZM102.051 30.7656L101.051 30.7614V30.7656H102.051ZM109.785 31.6836L110.367 32.497L110.785 32.1979V31.6836H109.785ZM109.609 21.4883H108.609V21.5084L108.61 21.5284L109.609 21.4883ZM109.043 20.3945L108.462 21.2083L108.475 21.2176L108.488 21.2266L109.043 20.3945ZM108.535 20.082L107.998 20.9257L108.042 20.9534L108.088 20.9765L108.535 20.082ZM107.891 19.8477L107.628 20.8124L107.648 20.818L107.669 20.8228L107.891 19.8477ZM107.285 19.7109L107.068 20.6871L107.121 20.6989L107.175 20.7048L107.285 19.7109ZM106.699 19.5938L105.729 19.8363L105.884 20.4565L106.512 20.5761L106.699 19.5938ZM106.699 18.6758L106.756 17.6774L105.93 17.6302L105.729 18.4332L106.699 18.6758ZM108.086 18.7539L108.03 19.7524L108.032 19.7524L108.086 18.7539ZM111.719 18.7539L111.662 17.7555L111.66 17.7556L111.719 18.7539ZM113.027 18.6758L113.542 17.8183L113.275 17.6583L112.965 17.6777L113.027 18.6758ZM113.184 18.793L112.476 19.5001L112.591 19.6148L112.736 19.6874L113.184 18.793ZM113.301 18.9102L112.406 19.3574L112.479 19.5025L112.594 19.6173L113.301 18.9102ZM113.379 19.0078L112.484 19.455L112.557 19.6002L112.672 19.7149L113.379 19.0078ZM113.438 19.1445L112.489 19.4608L112.498 19.4886L112.509 19.5159L113.438 19.1445ZM113.496 19.2812L114.485 19.4278L114.531 19.116L114.391 18.834L113.496 19.2812ZM113.34 21.4883L114.339 21.5291L114.34 21.5087V21.4883H113.34ZM113.301 33.168H112.301V33.7445L112.8 34.0334L113.301 33.168ZM117.051 33.9688L118.031 33.7726L117.88 33.0161L117.11 32.9705L117.051 33.9688ZM117.051 34.8867L117.146 35.8822L117.794 35.8205L117.999 35.2029L117.051 34.8867ZM110.449 36.4883L110.06 37.4092L110.452 37.5754L110.844 37.4071L110.449 36.4883ZM109.785 35.9609H108.785V36.197L108.891 36.4082L109.785 35.9609ZM109.785 32.9141H110.785V30.7351L109.133 32.1559L109.785 32.9141ZM106.094 35.5898L106.588 36.4593L106.591 36.4575L106.094 35.5898ZM99.4531 35.3164L98.6471 35.9083L98.6531 35.9164L99.4531 35.3164ZM98.4961 31.3906L99.496 31.376L99.496 31.3748L98.4961 31.3906ZM98.3398 21.4883L99.3397 21.4725L99.3392 21.437L99.3361 21.4017L98.3398 21.4883ZM98.1641 20.8242L97.2696 21.2714L97.2927 21.3176L97.3204 21.3611L98.1641 20.8242ZM97.7539 20.3945L97.1727 21.2083L97.1858 21.2176L97.1992 21.2266L97.7539 20.3945ZM97.2461 20.082L96.7422 20.9458L96.7701 20.962L96.7989 20.9765L97.2461 20.082ZM96.582 19.8477L96.3189 20.8124L96.3396 20.818L96.3604 20.8228L96.582 19.8477ZM95.9766 19.7109L95.7596 20.6871L95.8124 20.6989L95.8661 20.7048L95.9766 19.7109ZM95.3711 19.5938L94.401 19.8363L94.5574 20.4622L95.1922 20.5776L95.3711 19.5938ZM95.3156 19.6742C95.3569 19.6765 95.4502 19.6817 95.4914 19.684C95.5326 19.6863 95.626 19.6915 95.6672 19.6938C95.7084 19.6961 95.8017 19.7012 95.843 19.7035C95.8842 19.7058 95.9775 19.711 96.0187 19.7133C96.0209 19.7134 96.0386 19.7144 96.0407 19.7145C96.0429 19.7146 96.0605 19.7156 96.0627 19.7157C96.0649 19.7159 96.0825 19.7168 96.0847 19.717C96.0868 19.7171 96.1045 19.7181 96.1066 19.7182C96.1088 19.7183 96.1264 19.7193 96.1286 19.7194C96.1308 19.7195 96.1484 19.7205 96.1506 19.7206C96.1528 19.7207 96.1704 19.7217 96.1726 19.7218C96.1747 19.722 96.1924 19.7229 96.1945 19.7231C96.1967 19.7232 96.2143 19.7242 96.2165 19.7243C96.2187 19.7244 96.2362 19.7254 96.2385 19.7255C96.2406 19.7256 96.2583 19.7266 96.2604 19.7267C96.2626 19.7269 96.2803 19.7278 96.2824 19.728C96.2846 19.7281 96.3022 19.7291 96.3044 19.7292C96.3066 19.7293 96.3242 19.7303 96.3264 19.7304C96.3285 19.7305 96.3462 19.7315 96.3483 19.7316C96.3505 19.7317 96.3681 19.7327 96.3703 19.7328C96.3725 19.733 96.3901 19.7339 96.3923 19.7341C96.3945 19.7342 96.4121 19.7352 96.4143 19.7353C96.4164 19.7354 96.4341 19.7364 96.4362 19.7365C96.4384 19.7366 96.456 19.7376 96.4582 19.7377C96.4604 19.7378 96.478 19.7388 96.4802 19.7389C96.4823 19.7391 96.5 19.74 96.5021 19.7402C96.5043 19.7403 96.5219 19.7413 96.5241 19.7414C96.5263 19.7415 96.5439 19.7425 96.5461 19.7426C96.5483 19.7427 96.5659 19.7437 96.5681 19.7438C96.5702 19.7439 96.5879 19.7449 96.59 19.745C96.5922 19.7452 96.6098 19.7461 96.612 19.7463C96.6142 19.7464 96.6318 19.7474 96.634 19.7475C96.6362 19.7476 96.6538 19.7486 96.656 19.7487C96.6581 19.7488 96.6758 19.7498 96.6779 19.7499C96.6801 19.75 96.6977 19.751 96.6999 19.7511C96.7021 19.7513 96.7197 19.7522 96.7219 19.7524L96.8328 17.7554C96.7916 17.7532 96.6983 17.748 96.657 17.7457C96.6158 17.7434 96.5225 17.7382 96.4813 17.7359C96.44 17.7336 96.3467 17.7284 96.3055 17.7261C96.2642 17.7239 96.1709 17.7187 96.1297 17.7164C96.1275 17.7163 96.1099 17.7153 96.1077 17.7152C96.1055 17.715 96.0879 17.7141 96.0857 17.7139C96.0836 17.7138 96.0659 17.7128 96.0638 17.7127C96.0616 17.7126 96.044 17.7116 96.0418 17.7115C96.0396 17.7114 96.022 17.7104 96.0198 17.7103C96.0177 17.7102 96 17.7092 95.9979 17.7091C95.9957 17.7089 95.9781 17.708 95.9759 17.7078C95.9737 17.7077 95.9561 17.7067 95.9539 17.7066C95.9517 17.7065 95.9341 17.7055 95.9319 17.7054C95.9298 17.7053 95.9121 17.7043 95.91 17.7042C95.9078 17.7041 95.8902 17.7031 95.888 17.703C95.8858 17.7028 95.8682 17.7019 95.866 17.7017C95.8638 17.7016 95.8462 17.7006 95.844 17.7005C95.8419 17.7004 95.8242 17.6994 95.8221 17.6993C95.8199 17.6992 95.8023 17.6982 95.8001 17.6981C95.7979 17.698 95.7803 17.697 95.7781 17.6969C95.776 17.6967 95.7583 17.6958 95.7562 17.6956C95.754 17.6955 95.7364 17.6945 95.7342 17.6944C95.732 17.6943 95.7144 17.6933 95.7122 17.6932C95.71 17.6931 95.6924 17.6921 95.6902 17.692C95.6881 17.6918 95.6704 17.6909 95.6683 17.6907C95.6661 17.6906 95.6485 17.6896 95.6463 17.6895C95.6441 17.6894 95.6265 17.6884 95.6243 17.6883C95.6221 17.6882 95.6045 17.6872 95.6023 17.6871C95.6002 17.687 95.5825 17.686 95.5804 17.6859C95.5782 17.6857 95.5606 17.6848 95.5584 17.6846C95.5562 17.6845 95.5386 17.6835 95.5364 17.6834C95.5343 17.6833 95.5166 17.6823 95.5145 17.6822C95.5123 17.6821 95.4947 17.6811 95.4925 17.681C95.4903 17.6809 95.4727 17.6799 95.4705 17.6798C95.4683 17.6796 95.4507 17.6787 95.4485 17.6785C95.4464 17.6784 95.4287 17.6774 95.4266 17.6773L95.3156 19.6742ZM96.7219 19.7524C97.1917 19.7785 97.5658 19.7982 97.8431 19.8114L97.9382 17.8136C97.6686 17.8008 97.3005 17.7814 96.8328 17.7554L96.7219 19.7524ZM97.8431 19.8114C98.1298 19.825 98.3997 19.832 98.6523 19.832V17.832C98.4362 17.832 98.1983 17.826 97.9382 17.8136L97.8431 19.8114ZM98.6523 19.832C98.8687 19.832 99.1139 19.8248 99.3859 19.8113L99.286 17.8137C99.0371 17.8262 98.8266 17.832 98.6523 17.832V19.832ZM99.3859 19.8113C99.6505 19.798 100.005 19.7783 100.449 19.7522L100.332 17.7556C99.8904 17.7816 99.5422 17.8009 99.286 17.8137L99.3859 19.8113ZM100.448 19.7523C100.905 19.7261 101.343 19.7 101.762 19.6738L101.637 17.6777C101.222 17.7036 100.788 17.7296 100.334 17.7555L100.448 19.7523ZM101.383 19.6245C101.356 19.6155 101.333 19.6037 101.315 19.5916C101.297 19.5798 101.288 19.5705 101.286 19.5689C101.285 19.5676 101.292 19.5742 101.303 19.5931C101.315 19.6121 101.332 19.6414 101.35 19.684L103.181 18.8785C102.975 18.4105 102.618 17.9279 102.015 17.7271L101.383 19.6245ZM101.273 19.1572C101.264 19.2299 101.243 19.3616 101.205 19.5657L103.17 19.9343C103.21 19.7217 103.241 19.541 103.258 19.4053L101.273 19.1572ZM101.196 19.6178C101.168 19.8317 101.14 20.0874 101.113 20.3821L103.105 20.5632C103.131 20.285 103.155 20.0589 103.179 19.8822L101.196 19.6178ZM101.111 20.4251C101.096 20.7199 101.09 21.0754 101.09 21.4883H103.09C103.09 21.0938 103.096 20.7723 103.108 20.5202L101.111 20.4251ZM101.09 21.4841L101.051 30.7614L103.051 30.7698L103.09 21.4925L101.09 21.4841ZM101.051 30.7656C101.051 32.0058 101.233 33.103 101.728 33.9203C102.271 34.8184 103.136 35.2812 104.18 35.2812V33.2812C103.804 33.2812 103.604 33.1582 103.438 32.8844C103.224 32.5298 103.051 31.8692 103.051 30.7656H101.051ZM104.18 35.2812C105.041 35.2812 105.989 35.0022 106.988 34.5391C107.997 34.0713 109.125 33.3847 110.367 32.497L109.204 30.8702C108.023 31.7143 107.006 32.3265 106.147 32.7245C105.278 33.1274 104.633 33.2812 104.18 33.2812V35.2812ZM110.785 31.6836C110.785 27.7941 110.726 24.3817 110.609 21.4481L108.61 21.5284C108.727 24.4282 108.785 27.8127 108.785 31.6836H110.785ZM110.609 21.4883C110.609 21.122 110.537 20.7567 110.367 20.4161L108.578 21.3105C108.59 21.3345 108.609 21.3858 108.609 21.4883H110.609ZM110.367 20.4161C110.187 20.0558 109.916 19.7744 109.598 19.5625L108.488 21.2266C108.561 21.2751 108.576 21.3061 108.578 21.3105L110.367 20.4161ZM109.624 19.5808C109.411 19.4282 109.196 19.2945 108.982 19.1876L108.088 20.9765C108.187 21.0258 108.311 21.1004 108.462 21.2083L109.624 19.5808ZM109.072 19.2384C108.786 19.0565 108.441 18.9473 108.112 18.8725L107.669 20.8228C107.782 20.8485 107.866 20.8734 107.925 20.8949C107.986 20.917 108.005 20.9299 107.998 20.9257L109.072 19.2384ZM108.154 18.8829C107.87 18.8055 107.599 18.7397 107.396 18.7171L107.175 20.7048C107.174 20.7047 107.184 20.7058 107.208 20.7104C107.232 20.7147 107.263 20.7211 107.304 20.7303C107.386 20.7488 107.493 20.7757 107.628 20.8124L108.154 18.8829ZM107.502 18.7348C107.369 18.7051 107.16 18.6636 106.886 18.6114L106.512 20.5761C106.785 20.6281 106.967 20.6647 107.068 20.6871L107.502 18.7348ZM107.669 19.3512C107.648 19.2645 107.634 19.2004 107.627 19.1559C107.619 19.1072 107.621 19.1015 107.621 19.125H105.621C105.621 19.3583 105.673 19.6138 105.729 19.8363L107.669 19.3512ZM107.621 19.125C107.621 19.1476 107.62 19.1584 107.62 19.1531C107.621 19.149 107.622 19.137 107.626 19.1157C107.633 19.0722 107.647 19.0077 107.669 18.9183L105.729 18.4332C105.677 18.6431 105.621 18.8988 105.621 19.125H107.621ZM106.642 19.6742C107.098 19.7002 107.561 19.7263 108.03 19.7524L108.141 17.7554C107.673 17.7294 107.211 17.7034 106.756 17.6774L106.642 19.6742ZM108.032 19.7524C108.515 19.7785 108.895 19.7982 109.171 19.8114L109.266 17.8136C108.996 17.8008 108.621 17.7814 108.14 17.7554L108.032 19.7524ZM109.171 19.8114C109.458 19.825 109.728 19.832 109.98 19.832V17.832C109.764 17.832 109.526 17.826 109.266 17.8136L109.171 19.8114ZM109.98 19.832C110.197 19.832 110.442 19.8248 110.714 19.8113L110.614 17.8137C110.365 17.8262 110.155 17.832 109.98 17.832V19.832ZM110.714 19.8113C110.979 19.798 111.334 19.7783 111.777 19.7522L111.66 17.7556C111.219 17.7816 110.87 17.8009 110.614 17.8137L110.714 19.8113ZM111.776 19.7523C112.233 19.7261 112.671 19.7 113.09 19.6738L112.965 17.6777C112.55 17.7036 112.116 17.7296 111.662 17.7555L111.776 19.7523ZM112.513 19.5333C112.521 19.5379 112.521 19.5385 112.515 19.5344C112.51 19.5304 112.496 19.5193 112.476 19.5001L113.891 18.0859C113.777 17.972 113.653 17.8849 113.542 17.8183L112.513 19.5333ZM112.736 19.6874C112.595 19.6167 112.477 19.4988 112.406 19.3574L114.195 18.4629C114.072 18.2173 113.876 18.0213 113.631 17.8985L112.736 19.6874ZM112.594 19.6173C112.594 19.6173 112.593 19.6167 112.592 19.6157C112.591 19.6147 112.59 19.6131 112.588 19.6109C112.584 19.6067 112.577 19.5992 112.569 19.5886C112.555 19.5713 112.52 19.5256 112.484 19.455L114.273 18.5606C114.187 18.3872 114.068 18.2627 114.008 18.203L112.594 19.6173ZM112.672 19.7149C112.618 19.6611 112.582 19.6123 112.562 19.5834C112.54 19.5525 112.525 19.5263 112.516 19.5093C112.497 19.4764 112.487 19.4523 112.484 19.4457C112.478 19.4319 112.48 19.4333 112.489 19.4608L114.386 18.8283C114.369 18.7776 114.348 18.7172 114.322 18.6578C114.31 18.6284 114.29 18.5856 114.264 18.538C114.245 18.5043 114.188 18.4028 114.086 18.3007L112.672 19.7149ZM112.509 19.5159C112.535 19.5811 112.568 19.6614 112.602 19.7285L114.391 18.834C114.394 18.8416 114.396 18.8456 114.395 18.8443C114.395 18.8433 114.394 18.84 114.391 18.8336C114.385 18.8206 114.377 18.801 114.366 18.7731L112.509 19.5159ZM112.507 19.1347C112.395 19.8901 112.34 20.6749 112.34 21.4883H114.34C114.34 20.7652 114.389 20.0787 114.485 19.4278L112.507 19.1347ZM112.341 21.4475C112.262 23.3682 112.223 24.9392 112.223 26.1562H114.223C114.223 24.9775 114.261 23.4365 114.339 21.5291L112.341 21.4475ZM112.223 26.1562C112.223 26.791 112.236 27.847 112.262 29.3185L114.262 29.2831C114.236 27.8119 114.223 26.7715 114.223 26.1562H112.223ZM112.262 29.3185C112.288 30.7857 112.301 32.0686 112.301 33.168H114.301C114.301 32.0537 114.288 30.7586 114.262 29.2831L112.262 29.3185ZM112.8 34.0334C113.757 34.5875 115.209 34.8614 116.992 34.967L117.11 32.9705C115.377 32.8678 114.329 32.6078 113.802 32.3025L112.8 34.0334ZM116.07 34.1649C116.103 34.327 116.126 34.4478 116.142 34.5287C116.15 34.5697 116.155 34.5971 116.158 34.6133C116.159 34.622 116.16 34.6228 116.159 34.6187C116.159 34.6171 116.157 34.6086 116.156 34.5963C116.155 34.5902 116.154 34.5786 116.152 34.5638C116.151 34.5535 116.148 34.5199 116.148 34.4766H118.148C118.148 34.4324 118.145 34.3977 118.144 34.386C118.143 34.3697 118.141 34.3564 118.14 34.3483C118.138 34.3319 118.136 34.3181 118.135 34.31C118.132 34.2929 118.129 34.2758 118.127 34.2617C118.122 34.2323 118.114 34.1946 118.106 34.151C118.089 34.0626 118.064 33.936 118.031 33.7726L116.07 34.1649ZM116.148 34.4766C116.148 34.4308 116.153 34.4015 116.154 34.3963C116.155 34.3891 116.155 34.3916 116.151 34.4061C116.144 34.4361 116.129 34.4892 116.102 34.5705L117.999 35.2029C118.06 35.0199 118.148 34.7384 118.148 34.4766H116.148ZM116.956 33.8912C114.409 34.1338 112.105 34.6889 110.055 35.5695L110.844 37.4071C112.674 36.621 114.771 36.1084 117.146 35.8822L116.956 33.8912ZM110.839 35.5673C110.729 35.521 110.674 35.4836 110.651 35.4659C110.631 35.4497 110.654 35.4625 110.68 35.5137L108.891 36.4082C109.148 36.9225 109.622 37.224 110.06 37.4092L110.839 35.5673ZM110.785 35.9609V32.9141H108.785V35.9609H110.785ZM109.133 32.1559C107.866 33.2454 106.687 34.0971 105.597 34.7222L106.591 36.4575C107.818 35.7545 109.1 34.8223 110.437 33.6722L109.133 32.1559ZM105.6 34.7204C104.585 35.2967 103.595 35.5664 102.617 35.5664V37.5664C103.983 37.5664 105.31 37.185 106.588 36.4593L105.6 34.7204ZM102.617 35.5664C101.306 35.5664 100.618 35.2029 100.253 34.7164L98.6531 35.9164C99.5382 37.0965 100.96 37.5664 102.617 37.5664V35.5664ZM100.259 34.7245C99.8312 34.1417 99.521 33.0864 99.496 31.376L97.4962 31.4052C97.5233 33.2625 97.8511 34.8244 98.6471 35.9083L100.259 34.7245ZM99.496 31.3748L99.3397 21.4725L97.34 21.5041L97.4962 31.4064L99.496 31.3748ZM99.3361 21.4017C99.3053 21.0478 99.2283 20.6339 99.0077 20.2873L97.3204 21.3611C97.2953 21.3217 97.2981 21.31 97.3097 21.3535C97.3206 21.3947 97.3341 21.4657 97.3436 21.5749L99.3361 21.4017ZM99.0585 20.377C98.8803 20.0206 98.6008 19.7573 98.3086 19.5625L97.1992 21.2266C97.2465 21.2581 97.2704 21.2805 97.2796 21.2901C97.2881 21.2991 97.2806 21.2935 97.2696 21.2714L99.0585 20.377ZM98.3351 19.5808C98.1216 19.4282 97.9072 19.2945 97.6933 19.1876L96.7989 20.9765C96.8975 21.0258 97.0217 21.1004 97.1727 21.2083L98.3351 19.5808ZM97.75 19.2183C97.4684 19.054 97.1356 18.948 96.8037 18.8725L96.3604 20.8228C96.6014 20.8775 96.7113 20.9278 96.7422 20.9458L97.75 19.2183ZM96.8451 18.8829C96.5614 18.8055 96.2908 18.7397 96.087 18.7171L95.8661 20.7048C95.8651 20.7047 95.8751 20.7058 95.8997 20.7104C95.9233 20.7147 95.9549 20.7211 95.9956 20.7303C96.0774 20.7488 96.1844 20.7757 96.3189 20.8124L96.8451 18.8829ZM96.1935 18.7348C96.0553 18.7041 95.8364 18.662 95.55 18.6099L95.1922 20.5776C95.4787 20.6297 95.6634 20.6657 95.7596 20.6871L96.1935 18.7348ZM96.3412 19.3512C96.3196 19.2645 96.3063 19.2004 96.2989 19.1559C96.2908 19.1072 96.293 19.1015 96.293 19.125H94.293C94.293 19.3583 94.3453 19.6138 94.401 19.8363L96.3412 19.3512ZM96.293 19.125C96.293 19.1476 96.2915 19.1584 96.2921 19.1531C96.2925 19.149 96.294 19.137 96.2977 19.1157C96.3053 19.0722 96.3189 19.0077 96.3412 18.9183L94.401 18.4332C94.3485 18.6431 94.293 18.8988 94.293 19.125H96.293ZM130.391 35.1992L131.285 34.752L131.049 34.2806L130.527 34.2086L130.391 35.1992ZM130.391 36.1172L130.345 37.1162L130.994 37.1457L131.285 36.5644L130.391 36.1172ZM120.43 36.1172L119.46 36.3597L119.658 37.1533L120.475 37.1162L120.43 36.1172ZM120.43 35.1992L120.309 34.2065L119.591 34.2936L119.449 35.0031L120.43 35.1992ZM121.484 35.043L121.671 36.0253L121.694 36.021L121.716 36.0158L121.484 35.043ZM123.418 34.2031L124.165 34.8675L124.174 34.8575L124.183 34.8473L123.418 34.2031ZM123.75 33.3242L122.751 33.2838L122.751 33.2858L123.75 33.3242ZM123.789 21.6445H124.789V21.0851L124.312 20.7924L123.789 21.6445ZM120.039 20.8438L119.069 21.0863L119.25 21.8097L119.995 21.8428L120.039 20.8438ZM120.039 19.9258L119.937 18.9311L119.239 19.003L119.069 19.6832L120.039 19.9258ZM126.641 18.3242L127.012 17.3957L126.627 17.2415L126.245 17.4057L126.641 18.3242ZM127.324 18.832H128.324V18.5452L128.172 18.302L127.324 18.832ZM127.324 21.918H126.324V24.1239L127.983 22.6701L127.324 21.918ZM130.957 19.2617L131.454 20.1294L131.462 20.1251L130.957 19.2617ZM137.617 19.4961L136.811 20.088L136.817 20.0961L137.617 19.4961ZM138.594 23.4023L137.594 23.417L137.594 23.422L138.594 23.4023ZM138.789 33.3242L137.789 33.3439L137.789 33.3533L137.79 33.3627L138.789 33.3242ZM139.082 34.2031L138.277 34.7963L138.295 34.8204L138.314 34.8433L139.082 34.2031ZM139.902 34.75L139.555 35.6878L139.566 35.6917L139.902 34.75ZM140.801 35.043L140.533 36.0065L140.558 36.0135L140.584 36.0192L140.801 35.043ZM141.719 35.1992L142.699 35.0031L142.56 34.3058L141.855 34.2086L141.719 35.1992ZM141.719 36.1172L141.672 37.1161L142.428 37.1513L142.667 36.4334L141.719 36.1172ZM132.48 36.1172L131.51 36.3597L131.709 37.1542L132.527 37.1161L132.48 36.1172ZM132.48 35.1992L132.328 34.2108L131.672 34.3119L131.51 34.9567L132.48 35.1992ZM133.32 35.043L133.549 36.0164L133.569 36.0118L133.588 36.0065L133.32 35.043ZM134.102 34.75L133.703 33.8329L133.695 33.8362L133.688 33.8396L134.102 34.75ZM134.766 34.2031L133.92 33.6691L133.916 33.6754L133.912 33.6817L134.766 34.2031ZM135 33.3242L134 33.32V33.3242H135ZM135.039 24.0469L136.039 24.0511V24.0469H135.039ZM127.324 23.168L126.73 22.3638L126.324 22.6636V23.168H127.324ZM127.48 33.3242L126.481 33.3591L126.481 33.3627L127.48 33.3242ZM127.773 34.2031L126.968 34.7963L126.986 34.8204L127.005 34.8433L127.773 34.2031ZM128.594 34.75L128.246 35.6877L128.594 34.75ZM129.473 35.043L129.205 36.0065L129.23 36.0135L129.256 36.0192L129.473 35.043ZM129.496 35.6464C129.507 35.6684 129.508 35.6785 129.508 35.6875H131.508C131.508 35.3579 131.43 35.0425 131.285 34.752L129.496 35.6464ZM129.508 35.6875C129.508 35.6523 129.513 35.6318 129.514 35.6295C129.514 35.6282 129.513 35.631 129.511 35.638C129.508 35.645 129.503 35.6557 129.496 35.67L131.285 36.5644C131.41 36.3145 131.508 36.0167 131.508 35.6875H129.508ZM130.436 35.1182C128.703 35.0395 127.021 35 125.391 35V37C126.989 37 128.641 37.0387 130.345 37.1162L130.436 35.1182ZM125.391 35C123.786 35 122.117 35.0395 120.384 35.1182L120.475 37.1162C122.18 37.0387 123.818 37 125.391 37V35ZM121.4 35.8747C121.377 35.7827 121.363 35.7175 121.355 35.6746C121.351 35.6536 121.35 35.6432 121.35 35.6415C121.349 35.6377 121.352 35.6554 121.352 35.6875H119.352C119.352 35.9065 119.411 36.1642 119.46 36.3597L121.4 35.8747ZM121.352 35.6875C121.352 35.7272 121.348 35.7484 121.35 35.7339C121.351 35.7251 121.353 35.7063 121.359 35.6746C121.369 35.6112 121.385 35.5195 121.41 35.3953L119.449 35.0031C119.422 35.1394 119.4 35.2592 119.384 35.3586C119.371 35.4369 119.352 35.5659 119.352 35.6875H121.352ZM120.55 36.192C120.991 36.1385 121.367 36.0832 121.671 36.0253L121.297 34.0606C121.055 34.1069 120.727 34.1558 120.309 34.2065L120.55 36.192ZM121.716 36.0158C122.024 35.9424 122.39 35.8363 122.807 35.7017L122.193 33.7983C121.803 33.9241 121.492 34.0133 121.253 34.0702L121.716 36.0158ZM122.807 35.7017C123.323 35.5353 123.804 35.2742 124.165 34.8675L122.671 33.5388C122.615 33.6008 122.485 33.7043 122.193 33.7983L122.807 35.7017ZM124.183 34.8473C124.542 34.4212 124.728 33.9122 124.749 33.3627L122.751 33.2858C122.746 33.4133 122.711 33.4903 122.653 33.559L124.183 34.8473ZM124.749 33.3646C124.802 32.0578 124.828 30.481 124.828 28.6367H122.828C122.828 30.4643 122.802 32.0125 122.751 33.2838L124.749 33.3646ZM124.828 28.6367C124.828 28.0199 124.822 26.9742 124.809 25.5029L122.809 25.5206C122.822 26.9919 122.828 28.0296 122.828 28.6367H124.828ZM124.809 25.5029C124.796 24.0336 124.789 22.7476 124.789 21.6445H122.789C122.789 22.755 122.796 24.0472 122.809 25.5206L124.809 25.5029ZM124.312 20.7924C123.341 20.1957 121.871 19.9242 120.083 19.8447L119.995 21.8428C121.723 21.9196 122.753 22.1819 123.266 22.4967L124.312 20.7924ZM121.009 20.6012C120.988 20.5171 120.975 20.4534 120.968 20.4074C120.96 20.3591 120.961 20.3447 120.961 20.3555H118.961C118.961 20.5959 119.011 20.8527 119.069 21.0863L121.009 20.6012ZM120.961 20.3555C120.961 20.3875 120.959 20.4053 120.959 20.4015C120.959 20.3998 120.961 20.3894 120.964 20.3683C120.972 20.3255 120.986 20.2603 121.009 20.1683L119.069 19.6832C119.02 19.8788 118.961 20.1365 118.961 20.3555H120.961ZM120.142 20.9205C122.745 20.6521 125.048 20.0985 127.036 19.2427L126.245 17.4057C124.483 18.1645 122.385 18.6786 119.937 18.9311L120.142 20.9205ZM126.269 19.2527C126.479 19.3366 126.497 19.396 126.476 19.362L128.172 18.302C127.891 17.8514 127.453 17.5723 127.012 17.3957L126.269 19.2527ZM126.324 18.832V21.918H128.324V18.832H126.324ZM127.983 22.6701C129.208 21.5965 130.366 20.7532 131.454 20.1294L130.46 18.3941C129.231 19.0983 127.966 20.0259 126.665 21.1659L127.983 22.6701ZM131.462 20.1251C132.488 19.5254 133.488 19.2461 134.473 19.2461V17.2461C133.088 17.2461 131.744 17.6439 130.453 18.3983L131.462 20.1251ZM134.473 19.2461C135.786 19.2461 136.46 19.6102 136.811 20.088L138.423 18.9042C137.55 17.7153 136.129 17.2461 134.473 17.2461V19.2461ZM136.817 20.0961C137.254 20.6783 137.569 21.7245 137.594 23.417L139.594 23.3876C139.566 21.5385 139.231 19.9805 138.417 18.8961L136.817 20.0961ZM137.594 23.422L137.789 33.3439L139.789 33.3045L139.594 23.3827L137.594 23.422ZM137.79 33.3627C137.81 33.88 137.964 34.3712 138.277 34.7963L139.887 33.6099C139.836 33.5402 139.794 33.4455 139.788 33.2858L137.79 33.3627ZM138.314 34.8433C138.644 35.2395 139.077 35.5106 139.555 35.6877L140.25 33.8123C140.025 33.729 139.911 33.6355 139.85 33.5629L138.314 34.8433ZM139.566 35.6917C139.942 35.8259 140.266 35.9323 140.533 36.0065L141.068 34.0795C140.867 34.0234 140.592 33.9345 140.239 33.8083L139.566 35.6917ZM140.584 36.0192C140.855 36.0795 141.191 36.1359 141.582 36.1898L141.855 34.2086C141.491 34.1583 141.215 34.1106 141.018 34.0668L140.584 36.0192ZM140.738 35.3953C140.762 35.5163 140.778 35.6075 140.788 35.6729C140.793 35.7054 140.795 35.7269 140.797 35.7394C140.798 35.754 140.797 35.7474 140.797 35.7266H142.797C142.797 35.5206 142.749 35.249 142.699 35.0031L140.738 35.3953ZM140.797 35.7266C140.797 35.6977 140.8 35.689 140.797 35.7062C140.794 35.7224 140.786 35.7533 140.77 35.801L142.667 36.4334C142.736 36.2273 142.797 35.982 142.797 35.7266H140.797ZM141.765 35.1183C140.073 35.0395 138.508 35 137.07 35V37C138.472 37 140.005 37.0386 141.672 37.1161L141.765 35.1183ZM137.07 35C135.672 35 134.126 35.0396 132.434 35.1183L132.527 37.1161C134.194 37.0386 135.708 37 137.07 37V35ZM133.451 35.8747C133.429 35.7879 133.416 35.7239 133.408 35.6794C133.4 35.6307 133.402 35.6249 133.402 35.6484H131.402C131.402 35.8817 131.455 36.1373 131.51 36.3597L133.451 35.8747ZM133.402 35.6484C133.402 35.671 133.401 35.6818 133.401 35.6766C133.402 35.6724 133.403 35.6604 133.407 35.6391C133.415 35.5956 133.428 35.5311 133.451 35.4418L131.51 34.9567C131.458 35.1665 131.402 35.4223 131.402 35.6484H133.402ZM132.633 36.1876C132.985 36.1333 133.293 36.0766 133.549 36.0164L133.091 34.0696C132.905 34.1135 132.653 34.161 132.328 34.2108L132.633 36.1876ZM133.588 36.0065C133.884 35.9241 134.195 35.8062 134.515 35.6604L133.688 33.8396C133.436 33.9542 133.225 34.0316 133.053 34.0795L133.588 36.0065ZM134.5 35.6671C134.952 35.4707 135.349 35.1655 135.619 34.7246L133.912 33.6817C133.895 33.7095 133.85 33.7689 133.703 33.8329L134.5 35.6671ZM135.611 34.7371C135.883 34.3061 136 33.8215 136 33.3242H134C134 33.504 133.96 33.6054 133.92 33.6691L135.611 34.7371ZM136 33.3284L136.039 24.0511L134.039 24.0427L134 33.32L136 33.3284ZM136.039 24.0469C136.039 22.8007 135.857 21.6996 135.363 20.8796C134.821 19.9785 133.957 19.5117 132.91 19.5117V21.5117C133.283 21.5117 133.483 21.6341 133.65 21.9114C133.866 22.2698 134.039 22.9362 134.039 24.0469H136.039ZM132.91 19.5117C132.038 19.5117 131.087 19.7979 130.088 20.2727C129.08 20.7522 127.959 21.4555 126.73 22.3638L127.919 23.9721C129.086 23.1097 130.093 22.4848 130.947 22.0789C131.811 21.6682 132.454 21.5117 132.91 21.5117V19.5117ZM126.324 23.168C126.324 26.9657 126.376 30.3631 126.481 33.3591L128.48 33.2893C128.376 30.3218 128.324 26.9483 128.324 23.168H126.324ZM126.481 33.3627C126.501 33.88 126.655 34.3712 126.968 34.7963L128.578 33.6099C128.527 33.5402 128.486 33.4455 128.48 33.2858L126.481 33.3627ZM127.005 34.8433C127.335 35.2395 127.768 35.5106 128.246 35.6877L128.941 33.8123C128.716 33.729 128.602 33.6355 128.542 33.5629L127.005 34.8433ZM128.246 35.6877C128.612 35.8231 128.933 35.9311 129.205 36.0065L129.74 34.0795C129.543 34.0247 129.279 33.9373 128.941 33.8123L128.246 35.6877ZM129.256 36.0192C129.527 36.0795 129.863 36.1359 130.254 36.1898L130.527 34.2086C130.163 34.1583 129.887 34.1106 129.69 34.0668L129.256 36.0192ZM159.609 25.6484V26.6484H160.339L160.562 25.9539L159.609 25.6484ZM148.965 25.6484V24.6484H148.029L147.967 25.5819L148.965 25.6484ZM148.887 27.7188H147.887V27.7288L147.887 27.7389L148.887 27.7188ZM150.586 32.3867L149.855 33.069L149.859 33.0731L150.586 32.3867ZM156.367 33.9688L156.603 34.9406L156.617 34.9373L156.63 34.9335L156.367 33.9688ZM157.422 33.5781L156.975 32.6837L156.966 32.6879L156.958 32.6923L157.422 33.5781ZM158.945 32.3086L158.182 31.6626L158.177 31.6684L158.945 32.3086ZM159.512 31.5664L160.323 32.1507L160.329 32.1432L160.334 32.1356L159.512 31.5664ZM159.98 30.9219L160.184 29.9429L159.606 29.8224L159.221 30.2711L159.98 30.9219ZM160.742 31.3516L161.679 31.7012L161.889 31.1395L161.492 30.6899L160.742 31.3516ZM157.715 35.2773L158.247 36.124L158.253 36.1203L157.715 35.2773ZM150.938 36.2539L151.203 35.2898L151.192 35.2868L150.938 36.2539ZM146.934 33.5977L146.141 34.2074L146.147 34.2148L146.934 33.5977ZM145.684 31.0781L144.728 31.3722L144.729 31.3757L145.684 31.0781ZM156.738 18.7148L156.372 19.6454L156.381 19.649L156.39 19.6524L156.738 18.7148ZM158.613 19.9453L157.851 20.593L157.856 20.5984L157.861 20.6038L158.613 19.9453ZM159.609 21.6641L158.661 21.9803L158.665 21.9923L158.669 22.0042L159.609 21.6641ZM150.898 20.707L150.197 19.9942L150.191 19.9999L150.898 20.707ZM149.18 24.3203L148.203 24.1076L147.939 25.3203H149.18V24.3203ZM156.211 24.3203V25.3203H156.982L157.178 24.5748L156.211 24.3203ZM159.609 24.6484H148.965V26.6484H159.609V24.6484ZM147.967 25.5819C147.914 26.379 147.887 27.0921 147.887 27.7188H149.887C149.887 27.1475 149.912 26.4804 149.963 25.715L147.967 25.5819ZM147.887 27.7389C147.93 29.8708 148.559 31.6809 149.855 33.069L151.317 31.7044C150.425 30.7488 149.922 29.4469 149.887 27.6986L147.887 27.7389ZM149.859 33.0731C151.171 34.4632 152.915 35.125 154.98 35.125V33.125C153.374 33.125 152.189 32.628 151.313 31.7003L149.859 33.0731ZM154.98 35.125C155.545 35.125 156.087 35.0655 156.603 34.9406L156.132 32.9969C155.788 33.0803 155.405 33.125 154.98 33.125V35.125ZM156.63 34.9335C157.102 34.8049 157.527 34.6518 157.886 34.464L156.958 32.6923C156.77 32.7909 156.492 32.8982 156.104 33.004L156.63 34.9335ZM157.869 34.4726C158.257 34.2788 158.625 34.0116 158.975 33.6916L157.627 32.2146C157.378 32.4416 157.16 32.591 156.975 32.6837L157.869 34.4726ZM158.975 33.6916C159.282 33.4113 159.538 33.1593 159.714 32.9488L158.177 31.6684C158.092 31.7704 157.919 31.948 157.627 32.2146L158.975 33.6916ZM159.709 32.9545C159.877 32.7555 160.084 32.4834 160.323 32.1507L158.7 30.9821C158.471 31.3004 158.3 31.5231 158.182 31.6627L159.709 32.9545ZM160.334 32.1356C160.576 31.7858 160.702 31.6169 160.74 31.5727L159.221 30.2711C159.103 30.4091 158.916 30.67 158.69 30.9972L160.334 32.1356ZM159.777 31.9009C159.896 31.9257 159.952 31.9672 159.992 32.0132L161.492 30.6899C161.142 30.2932 160.69 30.0483 160.184 29.9429L159.777 31.9009ZM159.805 31.002C159.218 32.5748 158.335 33.6956 157.177 34.4343L158.253 36.1203C159.829 35.1143 160.964 33.6179 161.679 31.7012L159.805 31.002ZM157.183 34.4307C155.973 35.1908 154.673 35.5664 153.262 35.5664V37.5664C155.053 37.5664 156.722 37.0827 158.247 36.124L157.183 34.4307ZM153.262 35.5664C152.556 35.5664 151.871 35.474 151.203 35.2899L150.672 37.2179C151.515 37.4505 152.379 37.5664 153.262 37.5664V35.5664ZM151.192 35.2868C150.561 35.1209 149.936 34.8415 149.313 34.4382L148.226 36.1165C149.01 36.6247 149.829 36.9963 150.683 37.221L151.192 35.2868ZM149.313 34.4382C148.704 34.043 148.174 33.5583 147.72 32.9805L146.147 34.2148C146.735 34.9651 147.429 35.6002 148.226 36.1165L149.313 34.4382ZM147.726 32.9879C147.292 32.4232 146.923 31.6953 146.638 30.7806L144.729 31.3757C145.069 32.4661 145.534 33.4179 146.141 34.2074L147.726 32.9879ZM146.639 30.784C146.36 29.8769 146.215 28.8578 146.215 27.7188H144.215C144.215 29.0276 144.382 30.2481 144.728 31.3722L146.639 30.784ZM146.215 27.7188C146.215 25.1927 146.979 23.1827 148.462 21.6074L147.006 20.2363C145.13 22.2287 144.215 24.75 144.215 27.7188H146.215ZM148.462 21.6074C149.953 20.024 151.754 19.2461 153.926 19.2461V17.2461C151.202 17.2461 148.875 18.252 147.006 20.2363L148.462 21.6074ZM153.926 19.2461C154.913 19.2461 155.721 19.3892 156.372 19.6454L157.104 17.7843C156.167 17.4155 155.1 17.2461 153.926 17.2461V19.2461ZM156.39 19.6524C157.078 19.9075 157.545 20.2323 157.851 20.593L159.375 19.2977C158.796 18.6166 158.013 18.1211 157.086 17.7773L156.39 19.6524ZM157.861 20.6038C158.233 21.0298 158.496 21.4876 158.661 21.9803L160.558 21.3478C160.306 20.5905 159.905 19.9024 159.366 19.2868L157.861 20.6038ZM158.669 22.0042C158.848 22.4987 158.941 23.0402 158.941 23.6367H160.941C160.941 22.827 160.814 22.0534 160.55 21.3239L158.669 22.0042ZM158.941 23.6367C158.941 24.1731 158.85 24.7406 158.657 25.343L160.562 25.9539C160.811 25.1761 160.941 24.4024 160.941 23.6367H158.941ZM153.457 18.5156C152.232 18.5156 151.14 19.0663 150.197 19.9942L151.6 21.4199C152.271 20.7592 152.885 20.5156 153.457 20.5156V18.5156ZM150.191 19.9999C149.212 20.9794 148.577 22.3888 148.203 24.1076L150.157 24.5331C150.486 23.0227 150.996 22.0232 151.606 21.4141L150.191 19.9999ZM149.18 25.3203H156.211V23.3203H149.18V25.3203ZM157.178 24.5748C157.322 24.0275 157.406 23.5085 157.406 23.0312H155.406C155.406 23.2832 155.36 23.6235 155.244 24.0658L157.178 24.5748ZM157.406 23.0312C157.406 21.861 157.135 20.8058 156.52 19.935L154.886 21.0884C155.209 21.5458 155.406 22.1702 155.406 23.0312H157.406ZM156.52 19.935C155.815 18.9355 154.714 18.5156 153.457 18.5156V20.5156C154.257 20.5156 154.654 20.7598 154.886 21.0884L156.52 19.935Z" fill="black" mask="url(#path-1-outside-1_1_3)"/>
</g>
<defs>
<filter id="filter0_dd_1_3" x="0.40625" y="0.289062" width="171.336" height="51.2773" filterUnits="userSpaceOnUse" color-interpolation-filters="sRGB">
<feFlood flood-opacity="0" result="BackgroundImageFix"/>
<feColorMatrix in="SourceAlpha" type="matrix" values="0 0 0 0 0 0 0 0 0 0 0 0 0 0 0 0 0 0 127 0" result="hardAlpha"/>
<feOffset dy="1"/>
<feGaussianBlur stdDeviation="1.5"/>
<feColorMatrix type="matrix" values="0 0 0 0 0 0 0 0 0 0 0 0 0 0 0 0 0 0 0.3 0"/>
<feBlend mode="normal" in2="BackgroundImageFix" result="effect1_dropShadow_1_3"/>
<feColorMatrix in="SourceAlpha" type="matrix" values="0 0 0 0 0 0 0 0 0 0 0 0 0 0 0 0 0 0 127 0" result="hardAlpha"/>
<feMorphology radius="3" operator="dilate" in="SourceAlpha" result="effect2_dropShadow_1_3"/>
<feOffset dy="4"/>
<feGaussianBlur stdDeviation="4"/>
<feColorMatrix type="matrix" values="0 0 0 0 0 0 0 0 0 0 0 0 0 0 0 0 0 0 0.15 0"/>
<feBlend mode="normal" in2="effect1_dropShadow_1_3" result="effect2_dropShadow_1_3"/>
<feBlend mode="normal" in="SourceGraphic" in2="effect2_dropShadow_1_3" result="shape"/>
</filter>
</defs>
</svg>
