<svg width="295" height="178" viewBox="0 0 295 178" fill="none" xmlns="http://www.w3.org/2000/svg">
<path d="M94.704 118.172C94.704 118.844 94.224 119.18 93.264 119.18C91.752 119.18 90.72 118.892 90.168 118.316C89.616 117.716 89.34 116.72 89.34 115.328C89.364 113.168 89.952 109.712 91.104 104.96C92.28 100.208 93.384 96.68 94.416 94.376C94.68 93.776 95.052 93.212 95.532 92.684C96.012 92.132 96.648 91.856 97.44 91.856C97.776 91.856 98.052 92.06 98.268 92.468C98.508 92.876 98.628 93.344 98.628 93.872C98.628 94.4 98.532 95.192 98.34 96.248C98.148 97.28 97.908 98.468 97.62 99.812C97.332 101.156 97.008 102.608 96.648 104.168C95.352 110.096 94.704 114.764 94.704 118.172ZM109.577 116.372C108.377 118.028 106.769 118.856 104.753 118.856C103.121 118.856 101.813 118.52 100.829 117.848C99.8685 117.152 99.3885 116.06 99.3885 114.572C99.3885 113.948 99.4725 113.372 99.6405 112.844C99.8325 112.316 100.133 111.668 100.541 110.9L101.585 102.368C102.329 101.792 103.337 101.504 104.609 101.504C105.689 101.504 106.301 102.224 106.445 103.664C106.493 104.096 106.517 104.612 106.517 105.212C106.517 105.788 106.421 106.4 106.229 107.048C105.269 110.36 104.801 112.58 104.825 113.708C104.825 114.572 105.329 115.004 106.337 115.004C107.345 115.004 108.089 114.68 108.569 114.032C109.049 113.384 109.457 112.58 109.793 111.62C110.417 108.956 110.993 106.76 111.521 105.032C112.073 103.304 112.421 102.272 112.565 101.936C112.805 101.36 113.261 101.06 113.933 101.036C114.605 101.06 115.241 101.54 115.841 102.476C116.441 103.388 116.741 104.096 116.741 104.6C116.693 106.28 115.649 110.516 113.609 117.308C115.169 116.084 116.717 114.584 118.253 112.808C118.781 112.184 119.225 111.668 119.585 111.26C119.945 110.828 120.233 110.612 120.449 110.612C120.785 110.612 120.953 110.996 120.953 111.764C120.953 113.276 120.101 115.04 118.397 117.056C116.717 119.072 114.653 120.644 112.205 121.772C111.917 122.732 111.605 123.644 111.269 124.508C110.933 125.372 110.501 126.128 109.973 126.776C108.821 128.168 107.069 128.864 104.717 128.864C103.133 128.864 101.777 128.408 100.649 127.496C99.5445 126.584 98.9925 125.444 98.9925 124.076C98.9925 123.308 99.2445 122.696 99.7485 122.24C100.277 121.784 100.985 121.4 101.873 121.088C102.785 120.8 103.841 120.536 105.041 120.296C106.241 120.08 107.525 119.804 108.893 119.468C109.229 118.028 109.457 116.996 109.577 116.372ZM104.681 126.092C105.809 126.092 106.829 125.108 107.741 123.14C106.877 123.308 106.109 123.428 105.437 123.5C104.765 123.596 104.189 123.68 103.709 123.752C102.749 123.896 102.281 124.148 102.305 124.508C102.305 124.964 102.569 125.348 103.097 125.66C103.649 125.972 104.177 126.116 104.681 126.092ZM141.262 110.504C141.694 110.504 141.91 111.056 141.91 112.16C141.91 112.76 141.658 113.492 141.154 114.356C140.65 115.196 139.99 115.976 139.174 116.696C138.382 117.392 137.494 117.968 136.51 118.424C135.526 118.88 134.566 119.108 133.63 119.108C132.358 119.108 131.506 117.992 131.074 115.76C130.45 116.792 129.634 117.644 128.626 118.316C127.618 118.964 126.262 119.288 124.558 119.288C122.878 119.288 121.522 118.76 120.49 117.704C119.458 116.648 118.954 115.364 118.978 113.852C118.978 109.772 120.334 106.556 123.046 104.204C124.198 103.22 125.266 102.572 126.25 102.26C127.258 101.948 128.314 101.792 129.418 101.792C130.522 101.792 131.422 101.984 132.118 102.368C132.454 101.672 132.838 101.324 133.27 101.324C134.11 101.324 134.902 101.696 135.646 102.44C136.414 103.16 136.798 103.844 136.798 104.492C136.462 105.284 135.97 106.232 135.322 107.336C135.13 108.44 135.034 109.988 135.034 111.98C135.034 113.972 135.286 114.968 135.79 114.968C136.414 114.968 137.926 113.72 140.326 111.224C140.758 110.744 141.07 110.504 141.262 110.504ZM124.27 112.664C124.27 114.512 124.954 115.436 126.322 115.436C127.786 115.412 128.998 114.632 129.958 113.096C130.294 112.568 130.57 111.92 130.786 111.152C130.786 108.464 131.026 106.16 131.506 104.24C129.562 104.624 127.87 105.56 126.43 107.048C124.99 108.536 124.27 110.408 124.27 112.664ZM146.735 118.172C146.735 118.844 146.255 119.18 145.295 119.18C143.783 119.18 142.751 118.892 142.199 118.316C141.647 117.716 141.371 116.72 141.371 115.328C141.395 113.168 141.983 109.712 143.135 104.96C144.311 100.208 145.415 96.68 146.447 94.376C146.711 93.776 147.083 93.212 147.563 92.684C148.043 92.132 148.679 91.856 149.471 91.856C149.807 91.856 150.083 92.06 150.299 92.468C150.539 92.876 150.659 93.344 150.659 93.872C150.659 94.4 150.563 95.192 150.371 96.248C150.179 97.28 149.939 98.468 149.651 99.812C149.363 101.156 149.039 102.608 148.679 104.168C147.383 110.096 146.735 114.764 146.735 118.172ZM156.712 101.036C157.576 101.036 158.392 101.864 159.16 103.52C160.288 102.344 161.68 101.756 163.336 101.756C165.016 101.756 166.276 102.128 167.116 102.872C167.956 103.592 168.376 104.624 168.376 105.968C168.376 107.288 168.196 108.632 167.836 110C167.5 111.368 167.248 112.352 167.08 112.952C166.936 113.528 166.864 114.008 166.864 114.392C166.864 114.776 166.996 114.968 167.26 114.968C167.62 114.968 168.064 114.74 168.592 114.284C169.12 113.828 169.648 113.336 170.176 112.808C170.704 112.256 171.184 111.752 171.616 111.296C172.072 110.84 172.384 110.612 172.552 110.612C172.888 110.612 173.056 111.02 173.056 111.836C173.056 113.516 172.228 115.136 170.572 116.696C167.788 118.328 166.012 119.144 165.244 119.144C165.172 119.144 165.124 119.132 165.1 119.108C163.18 119.108 162.22 117.572 162.22 114.5C162.22 113.18 162.34 111.968 162.58 110.864C162.844 109.76 163.036 108.956 163.156 108.452C163.276 107.948 163.336 107.432 163.336 106.904C163.336 106.04 162.832 105.608 161.824 105.608C160.84 105.608 159.892 106.352 158.98 107.84C158.092 109.304 157.492 110.828 157.18 112.412V112.664C157.18 113.48 157.3 114.32 157.54 115.184C157.804 116.048 157.936 116.648 157.936 116.984C157.936 117.8 156.916 118.604 154.876 119.396C154.564 119.516 154.288 119.576 154.048 119.576C153.448 119.576 153.028 119.264 152.788 118.64C152.572 118.016 152.464 117.044 152.464 115.724C152.464 112.316 152.596 109.856 152.86 108.344C153.22 106.088 154.036 103.988 155.308 102.044C155.74 101.372 156.208 101.036 156.712 101.036ZM181.736 117.416C181.736 118.832 180.356 119.54 177.596 119.54C176.996 119.54 176.636 119.24 176.516 118.64C176.42 118.016 176.372 117.248 176.372 116.336C176.372 115.424 176.432 114.452 176.552 113.42C176.696 112.364 176.876 111.224 177.092 110C177.5 107.648 178.076 105.116 178.82 102.404C179.588 99.668 180.344 97.556 181.088 96.068C179.576 96.164 178.076 96.44 176.588 96.896C175.1 97.328 174.044 97.64 173.42 97.832C172.796 98 172.28 98.084 171.872 98.084C171.464 98.084 171.26 97.952 171.26 97.688C171.26 97.376 171.5 96.92 171.98 96.32C172.46 95.696 173.144 95.072 174.032 94.448C176.288 92.912 178.796 92.132 181.556 92.108L193.4 92.216C194.048 92.216 194.372 92.468 194.372 92.972C194.372 93.116 194.276 93.38 194.084 93.764C193.892 94.124 193.724 94.52 193.58 94.952C193.268 95.816 192.608 96.248 191.6 96.248C190.616 96.248 188.252 96.176 184.508 96.032C184.412 97.088 184.22 98.444 183.932 100.1C183.644 101.732 183.332 103.52 182.996 105.464C182.18 110.432 181.76 114.416 181.736 117.416ZM197.718 115.076C199.59 115.076 201.402 114.332 203.154 112.844C203.802 112.292 204.33 111.788 204.738 111.332C205.146 110.852 205.458 110.612 205.674 110.612C206.01 110.612 206.178 110.948 206.178 111.62C206.178 112.292 205.998 113.048 205.638 113.888C205.278 114.704 204.678 115.508 203.838 116.3C201.774 118.244 198.942 119.216 195.342 119.216C192.486 119.216 190.542 118.184 189.51 116.12C189.15 115.4 188.97 114.368 188.97 113.024C188.97 111.68 189.234 110.288 189.762 108.848C190.29 107.384 190.986 106.124 191.85 105.068C192.738 104.012 193.758 103.196 194.91 102.62C196.062 102.02 197.286 101.72 198.582 101.72C199.902 101.72 200.91 102.044 201.606 102.692C202.326 103.34 202.686 104.18 202.686 105.212C202.686 106.244 202.422 107.096 201.894 107.768C201.39 108.416 200.73 108.968 199.914 109.424C199.098 109.856 198.186 110.252 197.178 110.612C196.194 110.948 195.222 111.332 194.262 111.764V112.664C194.286 113.528 194.646 114.14 195.342 114.5C196.038 114.86 196.83 115.052 197.718 115.076ZM197.106 104.924C195.858 104.924 194.994 106.376 194.514 109.28C195.018 108.944 195.486 108.644 195.918 108.38C196.374 108.116 196.77 107.864 197.106 107.624C197.826 107.096 198.198 106.496 198.222 105.824C198.222 105.224 197.85 104.924 197.106 104.924ZM218.669 110.504C219.101 110.504 219.317 110.876 219.317 111.62C219.317 112.34 219.125 113.12 218.741 113.96C218.381 114.8 217.817 115.616 217.049 116.408C216.305 117.176 215.345 117.836 214.169 118.388C212.993 118.94 211.601 119.216 209.993 119.216C208.409 119.216 207.017 118.748 205.817 117.812C204.617 116.852 204.017 115.484 204.017 113.708C204.017 111.908 204.293 110.288 204.845 108.848C205.421 107.384 206.165 106.124 207.077 105.068C208.013 104.012 209.069 103.196 210.245 102.62C211.421 102.02 212.537 101.72 213.593 101.72C215.441 101.72 216.365 102.452 216.365 103.916C216.365 104.756 216.185 105.428 215.825 105.932C215.489 106.436 215.141 106.688 214.781 106.688C214.301 106.688 213.881 106.52 213.521 106.184C213.161 105.848 212.765 105.68 212.333 105.68C211.901 105.656 211.481 105.86 211.073 106.292C210.689 106.724 210.365 107.276 210.101 107.948C209.573 109.292 209.309 110.864 209.309 112.664C209.333 113.528 209.729 114.176 210.497 114.608C211.025 114.896 211.649 115.052 212.369 115.076C213.089 115.076 213.773 114.836 214.421 114.356C215.093 113.876 215.705 113.36 216.257 112.808C216.809 112.232 217.289 111.704 217.697 111.224C218.129 110.744 218.453 110.504 218.669 110.504ZM229.513 106.904C229.513 106.04 228.997 105.608 227.965 105.608C226.957 105.608 225.961 106.4 224.977 107.984C223.993 109.544 223.381 111.14 223.141 112.772C223.189 113.324 223.237 113.876 223.285 114.428C223.333 114.98 223.357 115.52 223.357 116.048C223.357 117.32 222.937 118.184 222.097 118.64C221.713 118.856 221.341 119.06 220.981 119.252C220.645 119.444 220.249 119.54 219.793 119.54C219.337 119.54 218.929 119.24 218.569 118.64C218.233 118.016 218.065 117.056 218.065 115.76C218.065 112.136 218.329 108.992 218.857 106.328C219.673 102.2 221.293 97.784 223.717 93.08C224.053 92.432 224.545 92.12 225.193 92.144C225.841 92.144 226.369 92.588 226.777 93.476C227.185 94.364 227.377 95.108 227.353 95.708C227.353 96.308 227.257 96.896 227.065 97.472C226.897 98.024 226.669 98.576 226.381 99.128C226.117 99.656 225.805 100.208 225.445 100.784C225.109 101.336 224.773 101.936 224.437 102.584L223.897 105.176C224.833 103.616 226.093 102.572 227.677 102.044C228.253 101.852 228.889 101.756 229.585 101.756C231.217 101.756 232.453 102.128 233.293 102.872C234.133 103.592 234.553 104.624 234.553 105.968C234.553 107.288 234.373 108.632 234.013 110C233.677 111.368 233.425 112.352 233.257 112.952C233.113 113.528 233.041 114.008 233.041 114.392C233.041 114.776 233.173 114.968 233.437 114.968C233.797 114.968 234.241 114.74 234.769 114.284C235.297 113.828 235.825 113.336 236.353 112.808C236.881 112.256 237.361 111.752 237.793 111.296C238.249 110.84 238.561 110.612 238.729 110.612C239.065 110.612 239.233 111.02 239.233 111.836C239.233 113.516 238.405 115.136 236.749 116.696C233.965 118.328 232.189 119.144 231.421 119.144C231.349 119.144 231.301 119.132 231.277 119.108C229.357 119.108 228.397 117.572 228.397 114.5C228.397 113.18 228.517 111.968 228.757 110.864C229.021 109.76 229.213 108.956 229.333 108.452C229.453 107.948 229.513 107.432 229.513 106.904Z" fill="black"/>
<path d="M120.131 0C124.109 0 127.925 1.58035 130.738 4.3934C133.551 7.20644 135.131 11.0218 135.131 15C135.131 18.9782 133.551 22.7936 130.738 25.6066C127.925 28.4196 124.109 30 120.131 30C116.153 30 112.338 28.4196 109.525 25.6066C106.711 22.7936 105.131 18.9782 105.131 15C105.131 11.0218 106.711 7.20644 109.525 4.3934C112.338 1.58035 116.153 0 120.131 0M160.131 80L150.131 52.8C148.381 47.85 146.831 43.55 140.131 40C133.231 36.5 128.231 35 120.131 35C111.981 35 107.031 36.5 100.131 40C93.4311 43.55 91.8811 47.85 90.1311 52.8L80.1311 80C78.5311 86.75 91.9311 92.2 100.681 95.95V85C100.681 80.25 104.981 76.9 113.581 74.85C114.381 74.65 115.131 74.55 115.731 74.45C113.031 70.35 111.931 66.7 111.831 66.4L120.681 63.4C120.731 63.5 123.281 71.35 129.331 75.3C130.381 75.65 131.431 76.05 132.431 76.5C136.281 78.2 138.581 80.4 139.331 83.05C132.631 85.7 126.231 87.05 120.131 87.05L115.131 86.55V99.7L120.131 100C126.981 100 133.481 98.6 139.581 95.95C148.331 92.2 161.381 85.65 160.131 80M137.631 75C135.642 75 133.734 74.2098 132.328 72.8033C130.921 71.3968 130.131 69.4891 130.131 67.5C130.131 65.5109 130.921 63.6032 132.328 62.1967C133.734 60.7902 135.642 60 137.631 60C139.62 60 141.528 60.7902 142.934 62.1967C144.341 63.6032 145.131 65.5109 145.131 67.5C145.131 69.4891 144.341 71.3968 142.934 72.8033C141.528 74.2098 139.62 75 137.631 75V75Z" fill="#222222"/>
<path d="M47.5 80H72.5V102.5H47.5V80Z" stroke="#222222" stroke-width="10" stroke-linecap="round" stroke-linejoin="round"/>
<path d="M102.5 20H17.5C14.7386 20 12.5 22.2386 12.5 25V75C12.5 77.7614 14.7386 80 17.5 80H102.5C105.261 80 107.5 77.7614 107.5 75V25C107.5 22.2386 105.261 20 102.5 20Z" stroke="#222222" stroke-width="10"/>
<path d="M55 67.5H65M35 102.5H85" stroke="#222222" stroke-width="10" stroke-linecap="round" stroke-linejoin="round"/>
</svg>
