<svg width="270" height="117" viewBox="0 0 270 117" fill="none" xmlns="http://www.w3.org/2000/svg">
<path d="M133.421 26.8253C133.153 26.4832 132.795 26.1832 132.366 25.9428C131.937 25.7024 131.447 25.5265 130.924 25.4253C128.552 24.9841 126.094 24.8362 123.654 24.9878C125.059 20.475 124.142 16.9138 123.218 14.8378C122.896 14.1045 122.21 13.4847 121.293 13.0993C120.377 12.7138 119.296 12.5904 118.261 12.7531C115.05 13.277 112.009 14.2511 109.31 15.6209C107.432 12.649 104.592 10.0521 101.033 8.05219C100.302 7.65202 99.4128 7.43558 98.4985 7.43558C97.5842 7.43558 96.6947 7.65202 95.9644 8.05219C92.4074 10.0529 89.5686 12.6497 87.6899 15.6209C84.99 14.2506 81.9485 13.2765 78.7357 12.7531C77.701 12.5906 76.6202 12.7144 75.7042 13.1003C74.7882 13.4861 74.1028 14.1064 73.7818 14.84C72.8584 16.9159 71.941 20.4772 73.3457 24.99C70.9058 24.8384 68.4482 24.9863 66.0758 25.4275C65.5528 25.5287 65.0627 25.7046 64.634 25.945C64.2054 26.1854 63.8469 26.4853 63.5793 26.8275C63.2981 27.1791 63.116 27.568 63.0437 27.9714C62.9714 28.3748 63.0103 28.7846 63.1582 29.1769C64.1538 31.8631 67.2188 36.9687 76.5189 41.0178C85.8191 45.0669 94.0755 45.0625 98.5 45.0625C102.925 45.0625 111.169 45.0625 120.475 41.0178C129.781 36.9731 132.84 31.8631 133.836 29.1747C133.985 28.7827 134.024 28.373 133.953 27.9696C133.882 27.5663 133.701 27.1773 133.421 26.8253ZM110.676 18.1344C113.152 16.7763 115.996 15.8146 119.019 15.3125C119.18 15.2887 119.347 15.309 119.488 15.3696C119.629 15.4303 119.734 15.5268 119.783 15.6406C120.968 18.3138 122.132 23.8438 116.598 30.8438C114.376 33.6048 111.529 36.0728 108.176 38.1434C110.486 35.2187 112.336 31.2659 112.336 26.0684C112.364 23.3765 111.804 20.6984 110.676 18.1344ZM77.2167 15.6472C77.2638 15.5322 77.3682 15.4341 77.5095 15.3722C77.6509 15.3103 77.8189 15.289 77.9807 15.3125C81.0045 15.8146 83.848 16.7763 86.3244 18.1344C85.1964 20.6984 84.636 23.3765 84.6641 26.0684C84.6641 31.2659 86.5139 35.2231 88.8179 38.1369C85.4643 36.0667 82.6168 33.5986 80.396 30.8372C74.8676 23.8438 76.0317 18.3138 77.2167 15.6472ZM78.3717 38.7625C70.1604 35.1947 67.4985 30.7956 66.6413 28.4812C66.6188 28.4225 66.6128 28.361 66.6236 28.3005C66.6345 28.24 66.662 28.1817 66.7044 28.1291C66.7697 28.0446 66.8776 27.9819 67.0052 27.9541C69.4361 27.5148 71.9635 27.4352 74.4375 27.72C75.2007 29.2569 76.1498 30.7414 77.2739 32.1562C80.3598 36.0293 84.5679 39.3674 89.6059 41.9388C85.6341 41.3671 81.8315 40.2919 78.3717 38.7625ZM98.5 42.1881C95.8892 40.8319 88.2735 36.0194 88.2735 26.0684C88.2735 16.5834 95.1734 11.7753 98.1391 10.1478C98.2432 10.091 98.3699 10.0603 98.5 10.0603C98.6302 10.0603 98.7568 10.091 98.861 10.1478C101.827 11.7753 108.727 16.5834 108.727 26.0684C108.727 36.0806 101.15 40.8341 98.5 42.1881ZM130.353 28.49C129.496 30.7956 126.834 35.1947 118.622 38.7713C115.159 40.2976 111.353 41.369 107.379 41.9366C112.417 39.3652 116.625 36.0271 119.711 32.1541C120.84 30.7403 121.794 29.2565 122.563 27.72C125.039 27.4374 127.569 27.52 130.001 27.9628C130.128 27.9906 130.236 28.0533 130.302 28.1378C130.343 28.1907 130.369 28.2492 130.379 28.3097C130.389 28.3702 130.382 28.4315 130.359 28.49H130.353Z" fill="#008000"/>
<path d="M2.06767 96.6987C186.332 140.03 267.963 71.533 264.88 62.0029" stroke="#002120" stroke-width="10"/>
<path d="M32.0512 75L36.3977 48.8182H54.8068L53.8352 54.5455H42.5341L41.8182 59.0455H51.9943L51.0227 64.7727H40.8466L39.1591 75H32.0512ZM61.1445 75.358C59.0139 75.358 57.2582 74.9361 55.8775 74.0923C54.5053 73.2401 53.5423 72.0554 52.9883 70.5384C52.4343 69.0128 52.3235 67.2443 52.6559 65.233C52.9883 63.2216 53.6829 61.4574 54.7397 59.9403C55.7965 58.4148 57.1559 57.2301 58.8178 56.3864C60.4798 55.5341 62.3803 55.108 64.5195 55.108C66.6417 55.108 68.3889 55.5341 69.761 56.3864C71.1417 57.2301 72.109 58.4148 72.663 59.9403C73.2255 61.4574 73.3406 63.2216 73.0082 65.233C72.6758 67.2443 71.9769 69.0128 70.9116 70.5384C69.8463 72.0554 68.4826 73.2401 66.8207 74.0923C65.1673 74.9361 63.2752 75.358 61.1445 75.358ZM62.0139 70.142C62.6275 70.142 63.1857 69.9418 63.6886 69.5412C64.1999 69.1406 64.6346 68.5696 64.9926 67.8281C65.359 67.0866 65.6275 66.2045 65.798 65.1818C65.9684 64.1506 65.994 63.2685 65.8747 62.5355C65.7553 61.794 65.5082 61.223 65.1332 60.8224C64.7582 60.4219 64.2639 60.2216 63.6502 60.2216C63.0366 60.2216 62.4741 60.4219 61.9627 60.8224C61.4514 61.223 61.0167 61.794 60.6588 62.5355C60.3008 63.2685 60.0366 64.1506 59.8661 65.1818C59.6957 66.2045 59.6659 67.0866 59.7766 67.8281C59.896 68.5696 60.1431 69.1406 60.5181 69.5412C60.9016 69.9418 61.4002 70.142 62.0139 70.142ZM74.2355 75L77.5082 55.3636H84.3605L83.7468 59.0966H83.9514C84.5394 57.7159 85.2766 56.706 86.163 56.0668C87.0494 55.4276 88.0167 55.108 89.065 55.108C89.3718 55.108 89.6659 55.1335 89.9471 55.1847C90.2369 55.2273 90.5224 55.2869 90.8036 55.3636L89.7809 61.3977C89.4485 61.2699 89.0352 61.1804 88.5409 61.1293C88.0465 61.0696 87.6076 61.0398 87.2241 61.0398C86.5423 61.0398 85.9031 61.1974 85.3065 61.5128C84.7184 61.8196 84.2156 62.2543 83.798 62.8168C83.3889 63.3707 83.1161 64.0227 82.9798 64.7727L81.2923 75H74.2355ZM105.636 55.3636L104.767 60.4773H91.8296L92.6989 55.3636H105.636ZM95.9716 50.6591H103.028L100.037 68.6847C99.9943 68.9574 100.003 69.1875 100.063 69.375C100.122 69.554 100.241 69.6903 100.42 69.7841C100.608 69.8693 100.855 69.9119 101.162 69.9119C101.366 69.9119 101.618 69.8864 101.916 69.8352C102.215 69.7756 102.44 69.733 102.594 69.7074L102.798 74.6676C102.44 74.7699 101.959 74.8849 101.354 75.0128C100.757 75.1491 100.063 75.2386 99.2699 75.2812C97.6165 75.358 96.2699 75.1832 95.2301 74.7571C94.1989 74.331 93.483 73.6662 93.0824 72.7628C92.6904 71.8509 92.6222 70.7131 92.8779 69.3494L95.9716 50.6591ZM119.408 66.4091L121.249 55.3636H128.306L125.033 75H118.334L118.948 71.267H118.743C118.138 72.5199 117.235 73.5 116.033 74.2074C114.84 74.9062 113.51 75.2557 112.044 75.2557C110.672 75.2557 109.526 74.9403 108.605 74.3097C107.685 73.679 107.033 72.8097 106.65 71.7017C106.266 70.5937 106.189 69.3239 106.419 67.892L108.516 55.3636H115.573L113.732 66.4091C113.587 67.3807 113.711 68.1435 114.103 68.6974C114.503 69.2514 115.147 69.5284 116.033 69.5284C116.621 69.5284 117.15 69.4048 117.618 69.1577C118.096 68.902 118.488 68.544 118.794 68.0838C119.11 67.6151 119.314 67.0568 119.408 66.4091ZM137.571 63.9545L135.73 75H128.673L131.946 55.3636H138.645L138.031 59.0966H138.236C138.858 57.8437 139.766 56.8679 140.959 56.169C142.161 55.4616 143.486 55.108 144.935 55.108C146.324 55.108 147.479 55.4233 148.399 56.054C149.32 56.6847 149.972 57.554 150.355 58.6619C150.739 59.7699 150.807 61.0398 150.56 62.4716L148.463 75H141.406L143.247 63.9545C143.409 62.983 143.29 62.2202 142.889 61.6662C142.497 61.1122 141.849 60.8352 140.946 60.8352C140.375 60.8352 139.851 60.9631 139.374 61.2188C138.905 61.4659 138.513 61.8239 138.197 62.2926C137.891 62.7528 137.682 63.3068 137.571 63.9545ZM161.254 75.358C159.157 75.358 157.418 74.9574 156.038 74.1562C154.657 73.3466 153.685 72.1875 153.123 70.679C152.56 69.1619 152.458 67.3466 152.816 65.233C153.157 63.2045 153.86 61.4318 154.925 59.9148C155.999 58.3977 157.35 57.2173 158.978 56.3736C160.614 55.5298 162.447 55.108 164.475 55.108C165.958 55.108 167.258 55.3381 168.374 55.7983C169.499 56.2585 170.415 56.9276 171.123 57.8054C171.83 58.6832 172.308 59.7443 172.555 60.9886C172.81 62.2244 172.81 63.6222 172.555 65.1818L172.299 66.8182H154.759L155.373 62.9318H166.418C166.504 62.3693 166.448 61.875 166.252 61.4489C166.065 61.0142 165.762 60.6776 165.344 60.4389C164.935 60.1918 164.441 60.0682 163.862 60.0682C163.282 60.0682 162.737 60.1918 162.225 60.4389C161.722 60.6861 161.292 61.0312 160.934 61.4744C160.585 61.9176 160.35 62.4375 160.231 63.0341L159.464 67.125C159.362 67.7557 159.4 68.3182 159.579 68.8125C159.758 69.3068 160.069 69.6946 160.512 69.9759C160.955 70.2571 161.526 70.3977 162.225 70.3977C162.702 70.3977 163.154 70.3338 163.58 70.206C164.015 70.0696 164.398 69.8736 164.731 69.6179C165.072 69.3537 165.344 69.0341 165.549 68.6591H171.992C171.532 70.0227 170.803 71.2074 169.806 72.2131C168.817 73.2102 167.599 73.9858 166.15 74.5398C164.71 75.0852 163.077 75.358 161.254 75.358ZM183.424 67.4318L184.447 61.2955L204.697 53.6761L203.623 60.1193L190.839 64.3125L191.095 64.0057L190.941 64.7216L190.788 64.4148L202.243 68.608L201.169 75.0511L183.424 67.4318ZM223.317 47.5909L209.715 78.9375H203.732L217.334 47.5909H223.317ZM242.244 67.4318L221.943 75.0511L223.017 68.608L235.801 64.4148L235.545 64.7216L235.699 64.0057L235.852 64.3125L224.397 60.1193L225.471 53.6761L243.267 61.2955L242.244 67.4318Z" fill="#82A0AA"/>
</svg>
