<svg width="131" height="80" viewBox="0 0 131 80" fill="none" xmlns="http://www.w3.org/2000/svg">
<path d="M57.3125 10H24.5625C22.391 10 20.3085 10.5268 18.7731 11.4645C17.2376 12.4021 16.375 13.6739 16.375 15V51.6667C16.375 52.9927 17.2376 54.2645 18.7731 55.2022C20.3085 56.1399 22.391 56.6667 24.5625 56.6667H106.438C108.609 56.6667 110.691 56.1399 112.227 55.2022C113.762 54.2645 114.625 52.9927 114.625 51.6667V35M65.5 56.6667V70" stroke="#666666" stroke-width="10" stroke-linecap="round" stroke-linejoin="round"/>
<path d="M87.3334 10L76.4167 16.6667L87.3334 23.3333M103.708 10L114.625 16.6667L103.708 23.3333M38.2084 70H92.7917" stroke="#666666" stroke-width="10" stroke-linecap="round" stroke-linejoin="round"/>
<path d="M36.2266 17.4805C36.2266 17.5456 36.2201 17.7539 36.207 18.1055C36.194 18.444 36.1745 18.8932 36.1484 19.4531C36.1224 20 36.0898 20.638 36.0508 21.3672C36.0247 22.0833 35.9857 22.8581 35.9336 23.6914C35.8945 24.5117 35.849 25.3711 35.7969 26.2695C35.7578 27.168 35.7188 28.0664 35.6797 28.9648C36.4219 28.9779 37.1055 29.0234 37.7305 29.1016C38.3685 29.1667 38.9349 29.2383 39.4297 29.3164C39.8594 29.3945 40.2044 29.4661 40.4648 29.5312C40.7383 29.5964 40.9531 29.6615 41.1094 29.7266C41.2786 29.7786 41.4023 29.8438 41.4805 29.9219C41.5716 29.987 41.6497 30.0651 41.7148 30.1562C41.7669 30.2344 41.8385 30.306 41.9297 30.3711C42.0339 30.4232 42.1315 30.4818 42.2227 30.5469C42.3138 30.599 42.3919 30.6576 42.457 30.7227C42.5221 30.7878 42.5547 30.8659 42.5547 30.957C42.5547 31.0612 42.5156 31.1589 42.4375 31.25C42.3724 31.3281 42.2878 31.3802 42.1836 31.4062C42.0664 31.4453 41.793 31.4779 41.3633 31.5039C40.9336 31.5299 40.276 31.5625 39.3906 31.6016C38.9089 31.6276 38.3294 31.6471 37.6523 31.6602C36.9753 31.6732 36.2721 31.6927 35.543 31.7188C35.5039 32.513 35.4583 33.2682 35.4062 33.9844C35.3672 34.7005 35.3281 35.3516 35.2891 35.9375C35.263 36.5104 35.237 36.9987 35.2109 37.4023C35.1849 37.806 35.1654 38.099 35.1523 38.2812C35.1133 38.7891 34.9961 39.3945 34.8008 40.0977C34.6185 40.8138 34.319 41.5495 33.9023 42.3047C33.4987 43.0729 32.9648 43.8281 32.3008 44.5703C31.6367 45.3125 30.7969 45.9701 29.7812 46.543C29.599 46.6341 29.4622 46.6797 29.3711 46.6797C29.1758 46.6797 29.0781 46.6016 29.0781 46.4453C29.0781 46.3411 29.1497 46.2044 29.293 46.0352C29.7487 45.5534 30.1263 45.0781 30.4258 44.6094C30.7253 44.1536 30.9661 43.6328 31.1484 43.0469C31.3438 42.4609 31.487 41.7773 31.5781 40.9961C31.6823 40.2279 31.7669 39.2969 31.832 38.2031C31.8451 37.8906 31.8646 37.4479 31.8906 36.875C31.9167 36.3802 31.9492 35.7292 31.9883 34.9219C32.0273 34.1016 32.0794 33.0599 32.1445 31.7969C31.2461 31.8229 30.582 31.8685 30.1523 31.9336C29.7357 31.9857 29.4818 32.0312 29.3906 32.0703C29.3125 32.0964 29.2669 32.1419 29.2539 32.207C29.2539 32.2591 29.2474 32.3177 29.2344 32.3828C29.2214 32.4349 29.1953 32.487 29.1562 32.5391C29.1172 32.5781 29.0326 32.5977 28.9023 32.5977C28.8112 32.5977 28.694 32.5781 28.5508 32.5391C28.4206 32.5 28.2904 32.4479 28.1602 32.3828C28.043 32.3047 27.9388 32.2201 27.8477 32.1289C27.7565 32.0247 27.7109 31.9141 27.7109 31.7969C27.7109 31.5755 27.8477 31.3151 28.1211 31.0156C28.1862 30.9505 28.3034 30.8398 28.4727 30.6836C28.6549 30.5273 28.9089 30.3646 29.2344 30.1953C29.5599 30.013 29.9701 29.8372 30.4648 29.668C30.9596 29.4857 31.5651 29.3359 32.2812 29.2188L32.7891 19.8047C32.8021 19.6354 32.8216 19.4401 32.8477 19.2188C32.8737 18.9844 32.9258 18.763 33.0039 18.5547C33.0951 18.3333 33.2253 18.138 33.3945 17.9688C33.5768 17.7865 33.8242 17.6628 34.1367 17.5977C34.3711 17.5456 34.5794 17.4609 34.7617 17.3438C34.944 17.2135 35.1068 17.0833 35.25 16.9531C35.4062 16.8229 35.543 16.7057 35.6602 16.6016C35.7904 16.4974 35.9076 16.4453 36.0117 16.4453C36.0638 16.4453 36.1029 16.4779 36.1289 16.543C36.168 16.6081 36.194 16.6927 36.207 16.7969C36.2201 16.901 36.2266 17.0182 36.2266 17.1484C36.2266 17.2656 36.2266 17.3763 36.2266 17.4805ZM47.7109 13.3984C47.6849 13.5417 47.6263 13.6589 47.5352 13.75C47.457 13.8411 47.3724 13.9323 47.2812 14.0234C47.1901 14.1146 47.099 14.2057 47.0078 14.2969C46.9297 14.388 46.8841 14.5052 46.8711 14.6484C46.832 14.9479 46.6758 15.1953 46.4023 15.3906C46.1289 15.5729 45.8099 15.6641 45.4453 15.6641C45.1328 15.6641 44.612 15.6445 43.8828 15.6055C43.1536 15.5664 42.3203 15.5469 41.3828 15.5469C40.3411 15.5469 39.2669 15.5859 38.1602 15.6641C37.0664 15.7422 35.9987 15.8659 34.957 16.0352C33.9154 16.2044 32.9323 16.4258 32.0078 16.6992C31.0964 16.9727 30.2956 17.3112 29.6055 17.7148C28.9154 18.1055 28.3685 18.5612 27.9648 19.082C27.5612 19.6029 27.3594 20.1953 27.3594 20.8594C27.3594 21.7969 27.5156 22.6237 27.8281 23.3398C28.1406 24.056 28.4857 24.668 28.8633 25.1758C29.2539 25.6836 29.6055 26.0872 29.918 26.3867C30.2305 26.6862 30.3867 26.888 30.3867 26.9922C30.3867 27.1094 30.3021 27.2135 30.1328 27.3047C29.9635 27.3958 29.7161 27.4414 29.3906 27.4414C28.6615 27.4414 28.0039 27.2852 27.418 26.9727C26.832 26.6471 26.3242 26.224 25.8945 25.7031C25.4779 25.1693 25.1523 24.5638 24.918 23.8867C24.6966 23.2096 24.5859 22.5065 24.5859 21.7773C24.5859 20.6576 24.8464 19.6029 25.3672 18.6133C25.901 17.6107 26.6302 16.7122 27.5547 15.918C28.4922 15.1237 29.5859 14.4401 30.8359 13.8672C32.0859 13.2943 33.4336 12.8711 34.8789 12.5977C36.5846 12.2721 38.1536 12.0638 39.5859 11.9727C41.0182 11.8685 42.3008 11.8164 43.4336 11.8164C44.4753 11.8164 45.2956 11.8555 45.8945 11.9336C46.4935 11.9987 46.9362 12.0833 47.2227 12.1875C47.5221 12.2917 47.7044 12.4089 47.7695 12.5391C47.8477 12.6562 47.8867 12.7669 47.8867 12.8711C47.8867 12.9492 47.8607 13.0273 47.8086 13.1055C47.7695 13.1836 47.737 13.2812 47.7109 13.3984ZM47.9258 38.6133C48.2383 38.6133 48.5117 38.5091 48.7461 38.3008C48.9805 38.0924 49.1758 37.819 49.332 37.4805C49.5013 37.1419 49.638 36.7513 49.7422 36.3086C49.8464 35.8529 49.9245 35.3841 49.9766 34.9023C49.599 34.6419 49.2279 34.3034 48.8633 33.8867C48.5117 33.4701 48.1927 32.9622 47.9062 32.3633C47.737 32.0117 47.6133 31.6536 47.5352 31.2891C47.457 30.9115 47.418 30.5534 47.418 30.2148C47.418 29.7852 47.4766 29.3815 47.5938 29.0039C47.7109 28.6263 47.8802 28.3008 48.1016 28.0273C48.3359 27.7539 48.6224 27.5391 48.9609 27.3828C49.2995 27.2135 49.6901 27.1289 50.1328 27.1289C50.6927 27.1289 51.1484 27.2656 51.5 27.5391C51.8646 27.7995 52.151 28.138 52.3594 28.5547C52.5677 28.9583 52.7109 29.401 52.7891 29.8828C52.8802 30.3646 52.9258 30.8138 52.9258 31.2305C52.9258 31.7773 52.8867 32.3372 52.8086 32.9102C52.7435 33.4831 52.6328 34.0625 52.4766 34.6484C52.9583 34.6094 53.388 34.4792 53.7656 34.2578C54.1432 34.0234 54.4622 33.6328 54.7227 33.0859C54.8789 32.7604 55.0417 32.5977 55.2109 32.5977C55.3021 32.5977 55.3802 32.6237 55.4453 32.6758C55.5234 32.7279 55.5625 32.8125 55.5625 32.9297C55.5625 33.0208 55.543 33.112 55.5039 33.2031C55.2435 33.9453 54.8073 34.5312 54.1953 34.9609C53.5964 35.3906 52.9258 35.6055 52.1836 35.6055C51.9622 36.2435 51.6888 36.849 51.3633 37.4219C51.0508 37.9818 50.6797 38.4766 50.25 38.9062C49.8203 39.3359 49.332 39.6745 48.7852 39.9219C48.2383 40.1693 47.6328 40.293 46.9688 40.293C46.6172 40.293 46.2201 40.2409 45.7773 40.1367C45.3346 40.0326 44.918 39.8177 44.5273 39.4922C44.1367 39.1536 43.8112 38.6849 43.5508 38.0859C43.2773 37.474 43.1406 36.6667 43.1406 35.6641C43.1406 34.8438 43.2969 33.9779 43.6094 33.0664C43.9089 32.1549 44.4167 31.25 45.1328 30.3516C45.4062 30.013 45.6536 29.7721 45.875 29.6289C46.1094 29.4857 46.2982 29.4141 46.4414 29.4141C46.7279 29.4141 46.8711 29.5898 46.8711 29.9414C46.8711 30.0977 46.819 30.293 46.7148 30.5273C46.6107 30.7617 46.5 31.0612 46.3828 31.4258C46.2656 31.7904 46.1549 32.2266 46.0508 32.7344C45.9466 33.2292 45.8945 33.8151 45.8945 34.4922C45.8945 35.7943 46.0768 36.8099 46.4414 37.5391C46.819 38.2552 47.3138 38.6133 47.9258 38.6133ZM50.0938 32.8711C50.0938 31.543 49.9701 30.5924 49.7227 30.0195C49.4753 29.4336 49.2018 29.1992 48.9023 29.3164C48.7721 29.3685 48.694 29.4857 48.668 29.668C48.6549 29.8503 48.6484 30.026 48.6484 30.1953C48.6484 30.4818 48.6875 30.7812 48.7656 31.0938C48.8438 31.4062 48.9414 31.7188 49.0586 32.0312C49.1888 32.3438 49.3385 32.6432 49.5078 32.9297C49.6901 33.2031 49.8789 33.457 50.0742 33.6914C50.0872 33.5482 50.0938 33.4115 50.0938 33.2812C50.0938 33.151 50.0938 33.0143 50.0938 32.8711ZM64.293 33.2031C63.9935 34.2188 63.6875 35.1562 63.375 36.0156C63.0625 36.875 62.7305 37.6172 62.3789 38.2422C62.0273 38.8672 61.6367 39.3555 61.207 39.707C60.7904 40.0586 60.3151 40.2344 59.7812 40.2344C59.1302 40.2344 58.6029 39.9089 58.1992 39.2578C57.8086 38.5938 57.6133 37.7214 57.6133 36.6406C57.6133 36.1719 57.6328 35.7292 57.6719 35.3125C57.724 34.8958 57.776 34.4922 57.8281 34.1016C57.8932 33.7109 57.9453 33.3333 57.9844 32.9688C58.0365 32.6042 58.0625 32.2461 58.0625 31.8945C58.0625 31.5169 58.0169 31.2695 57.9258 31.1523C57.8346 31.0352 57.7174 30.9766 57.5742 30.9766C57.5482 30.9766 57.5221 30.9831 57.4961 30.9961C57.4701 30.9961 57.418 31.0026 57.3398 31.0156C57.2747 31.0156 57.1706 31.0286 57.0273 31.0547C56.8971 31.0677 56.7148 31.0872 56.4805 31.1133C56.3372 31.4258 56.2201 31.6927 56.1289 31.9141C56.0378 32.1224 55.9596 32.3047 55.8945 32.4609C55.8294 32.6172 55.7708 32.7539 55.7188 32.8711C55.6797 32.9753 55.6406 33.0859 55.6016 33.2031C55.4974 33.4505 55.4062 33.6068 55.3281 33.6719C55.25 33.724 55.1589 33.75 55.0547 33.75C54.9766 33.75 54.9115 33.7174 54.8594 33.6523C54.7943 33.5872 54.7617 33.4961 54.7617 33.3789C54.7617 33.3008 54.7812 33.2096 54.8203 33.1055C54.8594 32.9883 54.9049 32.8451 54.957 32.6758C55.0221 32.4935 55.0872 32.2656 55.1523 31.9922C55.2305 31.7188 55.3086 31.3802 55.3867 30.9766C55.1263 30.8594 54.9049 30.5859 54.7227 30.1562C54.5273 29.7135 54.4297 29.1992 54.4297 28.6133C54.4297 28.1315 54.5143 27.6432 54.6836 27.1484C54.8398 26.6536 55.0352 26.2044 55.2695 25.8008C55.5169 25.3841 55.7773 25.0456 56.0508 24.7852C56.3372 24.5247 56.5911 24.3945 56.8125 24.3945C57.099 24.3945 57.3398 24.5703 57.5352 24.9219C57.7435 25.2604 57.8477 25.651 57.8477 26.0938C57.8477 26.3281 57.8216 26.569 57.7695 26.8164C57.7174 27.0508 57.6589 27.2721 57.5938 27.4805C57.5417 27.6758 57.4896 27.8581 57.4375 28.0273C57.3854 28.1836 57.3594 28.3073 57.3594 28.3984C57.3594 28.5156 57.4049 28.5742 57.4961 28.5742C57.5612 28.5742 57.6784 28.5417 57.8477 28.4766L58.8047 28.0469C59.1562 27.9036 59.4557 27.832 59.7031 27.832C60.1198 27.832 60.3932 27.9622 60.5234 28.2227C60.6667 28.4831 60.7383 28.8672 60.7383 29.375C60.7383 29.5964 60.7122 29.987 60.6602 30.5469C60.6081 31.0938 60.5495 31.7057 60.4844 32.3828C60.4323 33.0469 60.3802 33.7109 60.3281 34.375C60.2891 35.0391 60.2695 35.5794 60.2695 35.9961C60.2695 36.4518 60.3151 36.7904 60.4062 37.0117C60.5104 37.2201 60.7253 37.3242 61.0508 37.3242C61.2852 37.3242 61.513 37.1875 61.7344 36.9141C61.9688 36.6406 62.1901 36.2956 62.3984 35.8789C62.6068 35.4622 62.8021 35.0065 62.9844 34.5117C63.1797 34.0169 63.3555 33.5417 63.5117 33.0859C63.6289 32.7604 63.7982 32.5977 64.0195 32.5977C64.2279 32.5977 64.332 32.7148 64.332 32.9492C64.332 32.9883 64.3255 33.0273 64.3125 33.0664C64.3125 33.1055 64.306 33.151 64.293 33.2031ZM71.4414 33.2031C71.0247 34.401 70.6471 35.4427 70.3086 36.3281C69.9831 37.2135 69.651 37.9557 69.3125 38.5547C68.974 39.1406 68.6094 39.5833 68.2188 39.8828C67.8281 40.1693 67.3594 40.3125 66.8125 40.3125C66.5 40.3125 66.168 40.2214 65.8164 40.0391C65.4648 39.8698 65.1393 39.5378 64.8398 39.043C64.5404 38.5482 64.293 37.8581 64.0977 36.9727C63.9023 36.0742 63.8047 34.9089 63.8047 33.4766C63.8047 33.099 63.8177 32.6042 63.8438 31.9922C63.8828 31.3672 63.9219 30.6771 63.9609 29.9219C64.013 29.1536 64.0716 28.3464 64.1367 27.5C64.2018 26.6406 64.2734 25.7812 64.3516 24.9219C64.2865 24.9349 64.2279 24.9479 64.1758 24.9609C64.1237 24.9609 64.0651 24.9609 64 24.9609C63.2969 25.0391 62.7826 25.1107 62.457 25.1758C62.1315 25.2279 61.9362 25.2865 61.8711 25.3516C61.806 25.4036 61.7734 25.4688 61.7734 25.5469C61.7734 25.612 61.7734 25.6771 61.7734 25.7422C61.7604 25.7943 61.7409 25.8464 61.7148 25.8984C61.6758 25.9375 61.6042 25.957 61.5 25.957C61.4349 25.957 61.3568 25.944 61.2656 25.918C61.1615 25.8789 61.0638 25.8268 60.9727 25.7617C60.8685 25.6836 60.7839 25.5924 60.7188 25.4883C60.6536 25.3711 60.6211 25.2344 60.6211 25.0781C60.6211 24.9349 60.6536 24.7852 60.7188 24.6289C60.7708 24.4727 60.8424 24.3229 60.9336 24.1797C61.0247 24.0234 61.1615 23.8346 61.3438 23.6133C61.513 23.3919 61.7474 23.1706 62.0469 22.9492C62.3333 22.7148 62.6914 22.5 63.1211 22.3047C63.5508 22.1094 64.0586 21.9531 64.6445 21.8359C64.7096 21.2891 64.7747 20.8073 64.8398 20.3906C64.918 19.9609 64.9961 19.5833 65.0742 19.2578C65.1523 18.9193 65.224 18.6198 65.2891 18.3594C65.3672 18.0859 65.4453 17.8385 65.5234 17.6172C65.6797 17.1094 65.875 16.7253 66.1094 16.4648C66.3438 16.1914 66.6107 15.9049 66.9102 15.6055C67.2357 15.2799 67.5091 15.0651 67.7305 14.9609C67.9648 14.8438 68.1406 14.7786 68.2578 14.7656C68.375 14.7656 68.4792 14.8047 68.5703 14.8828C68.6745 14.9479 68.7266 15.0716 68.7266 15.2539C68.7266 15.3581 68.7201 15.4492 68.707 15.5273C68.694 15.5924 68.681 15.651 68.668 15.7031C68.6289 15.8464 68.5638 16.1003 68.4727 16.4648C68.3945 16.8294 68.2969 17.2786 68.1797 17.8125C68.0755 18.3333 67.9648 18.9258 67.8477 19.5898C67.7305 20.2409 67.6263 20.9375 67.5352 21.6797C68.2383 21.7318 68.8242 21.8229 69.293 21.9531C69.7747 22.0703 70.0677 22.1419 70.1719 22.168C70.3932 22.2461 70.543 22.3177 70.6211 22.3828C70.6992 22.4479 70.7708 22.5586 70.8359 22.7148C70.888 22.819 70.9466 22.9036 71.0117 22.9688C71.0898 23.0339 71.1615 23.0924 71.2266 23.1445C71.3047 23.1966 71.3698 23.2552 71.4219 23.3203C71.474 23.3854 71.5 23.4766 71.5 23.5938C71.5 23.6979 71.474 23.8021 71.4219 23.9062C71.3698 23.9974 71.3112 24.056 71.2461 24.082C71.1549 24.1341 70.9857 24.1862 70.7383 24.2383C70.4909 24.2773 70.1914 24.3229 69.8398 24.375C69.4883 24.4141 69.0846 24.4596 68.6289 24.5117C68.1862 24.5508 67.724 24.5964 67.2422 24.6484C67.0859 26.263 66.9297 27.819 66.7734 29.3164C66.6302 30.8138 66.5586 32.1484 66.5586 33.3203C66.5586 33.9193 66.5911 34.4661 66.6562 34.9609C66.7344 35.4557 66.8451 35.8854 66.9883 36.25C67.1315 36.6016 67.3008 36.875 67.4961 37.0703C67.7044 37.2656 67.9388 37.3633 68.1992 37.3633C68.4336 37.3633 68.6484 37.2591 68.8438 37.0508C69.0391 36.8294 69.2344 36.5299 69.4297 36.1523C69.625 35.7747 69.8203 35.3255 70.0156 34.8047C70.224 34.2839 70.4453 33.7109 70.6797 33.0859C70.7969 32.7604 70.9661 32.5977 71.1875 32.5977C71.3958 32.5977 71.5 32.7148 71.5 32.9492C71.5 32.9883 71.4935 33.0339 71.4805 33.0859C71.4674 33.138 71.4544 33.1771 71.4414 33.2031ZM84.0195 33.2031C83.6029 34.362 83.2253 35.3841 82.8867 36.2695C82.5612 37.1419 82.2292 37.8776 81.8906 38.4766C81.5521 39.0625 81.181 39.5052 80.7773 39.8047C80.3867 40.1042 79.9245 40.2539 79.3906 40.2539C78.9349 40.2539 78.5508 40.1237 78.2383 39.8633C77.9258 39.5898 77.6784 39.2513 77.4961 38.8477C77.3138 38.431 77.1836 37.9753 77.1055 37.4805C77.0273 36.9857 76.9883 36.5104 76.9883 36.0547C76.9883 35.7161 76.9883 35.3906 76.9883 35.0781C76.9883 34.7656 77.0013 34.4727 77.0273 34.1992C76.7409 35.3581 76.4479 36.3281 76.1484 37.1094C75.862 37.8906 75.569 38.5156 75.2695 38.9844C74.9701 39.4531 74.651 39.7917 74.3125 40C73.987 40.1953 73.6419 40.293 73.2773 40.293C73.0039 40.293 72.724 40.2214 72.4375 40.0781C72.1641 39.9479 71.9102 39.6875 71.6758 39.2969C71.4414 38.9062 71.2461 38.3594 71.0898 37.6562C70.9466 36.9401 70.875 36.0026 70.875 34.8438C70.875 34.5573 70.8815 34.2122 70.8945 33.8086C70.9076 33.3919 70.9336 32.9622 70.9727 32.5195C71.0117 32.0638 71.0573 31.6211 71.1094 31.1914C71.1745 30.7487 71.2526 30.3516 71.3438 30C71.3828 29.8438 71.4349 29.6549 71.5 29.4336C71.5651 29.2122 71.6302 29.069 71.6953 29.0039C71.8385 28.8737 71.9557 28.7565 72.0469 28.6523C72.151 28.5482 72.2357 28.4961 72.3008 28.4961C72.3919 28.4961 72.4635 28.5352 72.5156 28.6133C72.5807 28.6784 72.6458 28.7109 72.7109 28.7109C72.75 28.7109 72.8216 28.6784 72.9258 28.6133C73.043 28.5482 73.1667 28.4766 73.2969 28.3984C73.4271 28.3203 73.5508 28.2487 73.668 28.1836C73.7982 28.1185 73.8893 28.0859 73.9414 28.0859C74.0977 28.0859 74.1758 28.2292 74.1758 28.5156C74.1758 28.5938 74.1693 28.6849 74.1562 28.7891C74.1432 28.8932 74.1237 29.0169 74.0977 29.1602C73.9805 29.9935 73.8958 30.8008 73.8438 31.582C73.8047 32.3503 73.7852 33.1771 73.7852 34.0625C73.7852 34.5573 73.7917 35.0065 73.8047 35.4102C73.8177 35.8138 73.8438 36.1654 73.8828 36.4648C73.9349 36.7513 74.013 36.9792 74.1172 37.1484C74.2214 37.3047 74.3646 37.3828 74.5469 37.3828C74.8073 37.3828 75.0482 37.2135 75.2695 36.875C75.4909 36.5234 75.6927 36.0742 75.875 35.5273C76.0703 34.9805 76.2526 34.375 76.4219 33.7109C76.5911 33.0469 76.7539 32.4023 76.9102 31.7773C77.0664 31.1393 77.2227 30.5534 77.3789 30.0195C77.5482 29.4857 77.7174 29.082 77.8867 28.8086C78.056 28.5482 78.2773 28.3333 78.5508 28.1641C78.8372 27.9948 79.1042 27.9102 79.3516 27.9102C79.638 27.9102 79.8398 28.0208 79.957 28.2422C80.0872 28.4505 80.1523 28.8607 80.1523 29.4727C80.1523 29.9154 80.1393 30.332 80.1133 30.7227C80.0872 31.1133 80.0612 31.5169 80.0352 31.9336C80.0091 32.3503 79.9831 32.7995 79.957 33.2812C79.931 33.75 79.918 34.2773 79.918 34.8633C79.918 35.3971 79.9375 35.8333 79.9766 36.1719C80.0286 36.4974 80.0938 36.7513 80.1719 36.9336C80.25 37.1159 80.3346 37.2396 80.4258 37.3047C80.5169 37.3698 80.6081 37.4023 80.6992 37.4023C80.9206 37.4023 81.1289 37.3047 81.3242 37.1094C81.5195 36.9141 81.7148 36.6341 81.9102 36.2695C82.1185 35.8919 82.3268 35.4362 82.5352 34.9023C82.7565 34.3685 82.9974 33.763 83.2578 33.0859C83.3229 32.9297 83.401 32.8125 83.4922 32.7344C83.5833 32.6432 83.681 32.5977 83.7852 32.5977C83.8633 32.5977 83.9284 32.6302 83.9805 32.6953C84.0456 32.7474 84.0781 32.8255 84.0781 32.9297C84.0781 33.0208 84.0586 33.112 84.0195 33.2031ZM97.7891 32.5977C97.8672 32.5977 97.9323 32.6302 97.9844 32.6953C98.0495 32.7474 98.082 32.8255 98.082 32.9297C98.082 33.0339 98.0625 33.1315 98.0234 33.2227C97.6198 34.3815 97.2487 35.4036 96.9102 36.2891C96.5716 37.1615 96.2266 37.8906 95.875 38.4766C95.5365 39.0625 95.1849 39.5052 94.8203 39.8047C94.4557 40.1042 94.0521 40.2539 93.6094 40.2539C93.0625 40.2539 92.6198 40.1302 92.2812 39.8828C91.9427 39.6224 91.6758 39.2904 91.4805 38.8867C91.2852 38.4831 91.1549 38.0339 91.0898 37.5391C91.0247 37.0312 90.9922 36.5299 90.9922 36.0352C90.9922 35.6836 90.9987 35.3385 91.0117 35C91.0247 34.6484 91.0378 34.3164 91.0508 34.0039C91.0768 33.6914 91.0964 33.4115 91.1094 33.1641C91.1224 32.9167 91.1289 32.7148 91.1289 32.5586C91.1289 32.3112 91.0833 32.1354 90.9922 32.0312C90.9141 31.9141 90.8229 31.8555 90.7188 31.8555C90.6016 31.8555 90.5039 31.9141 90.4258 32.0312C90.3477 32.1354 90.2826 32.2591 90.2305 32.4023C90.1654 32.5586 90.0677 32.8385 89.9375 33.2422C89.8073 33.6458 89.6576 34.1016 89.4883 34.6094C89.319 35.1172 89.1367 35.651 88.9414 36.2109C88.7591 36.7578 88.5898 37.2526 88.4336 37.6953C88.2253 38.2682 88.0234 38.737 87.8281 39.1016C87.6458 39.4531 87.4701 39.7266 87.3008 39.9219C87.1315 40.1172 86.9622 40.2474 86.793 40.3125C86.6367 40.3906 86.487 40.4297 86.3438 40.4297C86.2135 40.4297 86.0768 40.4036 85.9336 40.3516C85.8034 40.2995 85.6797 40.2148 85.5625 40.0977C85.4583 39.9805 85.3672 39.8242 85.2891 39.6289C85.2109 39.4206 85.1719 39.1602 85.1719 38.8477C85.1458 38.1836 85.1263 37.4674 85.1133 36.6992C85.1133 35.918 85.1133 35.1562 85.1133 34.4141C85.1133 34.0625 85.1133 33.724 85.1133 33.3984C85.1263 33.0729 85.1328 32.7734 85.1328 32.5C85.1328 32.1224 85.1133 31.8555 85.0742 31.6992C85.0352 31.5299 84.9831 31.4453 84.918 31.4453C84.7747 31.4453 84.651 31.5885 84.5469 31.875C84.4557 32.1484 84.293 32.5781 84.0586 33.1641C83.9805 33.3594 83.8958 33.4961 83.8047 33.5742C83.7266 33.6523 83.6419 33.6914 83.5508 33.6914C83.4727 33.6914 83.4076 33.6654 83.3555 33.6133C83.2904 33.5482 83.2578 33.444 83.2578 33.3008C83.2578 33.2227 83.2904 33.0859 83.3555 32.8906C83.4206 32.6823 83.4987 32.4609 83.5898 32.2266C83.694 31.9792 83.7917 31.7318 83.8828 31.4844C83.987 31.224 84.0781 31.0026 84.1562 30.8203C84.2734 30.5208 84.4102 30.2148 84.5664 29.9023C84.7357 29.5768 84.918 29.2839 85.1133 29.0234C85.3216 28.75 85.543 28.5286 85.7773 28.3594C86.0247 28.1771 86.2917 28.0859 86.5781 28.0859C86.9557 28.0859 87.2878 28.2943 87.5742 28.7109C87.8737 29.1276 88.0365 29.7591 88.0625 30.6055C88.0755 31.2826 88.082 31.9271 88.082 32.5391C88.0951 33.138 88.1081 33.6654 88.1211 34.1211C88.1341 34.5638 88.1406 34.9219 88.1406 35.1953C88.1536 35.4557 88.1667 35.5859 88.1797 35.5859C88.2057 35.5859 88.2643 35.4688 88.3555 35.2344C88.4466 35 88.5638 34.694 88.707 34.3164C88.8503 33.9258 89.013 33.4896 89.1953 33.0078C89.3776 32.513 89.5664 32.0182 89.7617 31.5234C89.9701 31.0156 90.1849 30.5339 90.4062 30.0781C90.6276 29.6094 90.849 29.1992 91.0703 28.8477C91.3047 28.4701 91.5521 28.1836 91.8125 27.9883C92.0859 27.793 92.3919 27.6953 92.7305 27.6953C93.1992 27.6953 93.5378 27.9753 93.7461 28.5352C93.9544 29.082 94.0586 29.8242 94.0586 30.7617C94.0586 30.9961 94.0521 31.2826 94.0391 31.6211C94.026 31.9596 94.0065 32.3177 93.9805 32.6953C93.9674 33.0729 93.9544 33.4505 93.9414 33.8281C93.9284 34.2057 93.9219 34.5508 93.9219 34.8633C93.9219 35.3971 93.9414 35.8333 93.9805 36.1719C94.0326 36.4974 94.0977 36.7513 94.1758 36.9336C94.2539 37.1159 94.3385 37.2396 94.4297 37.3047C94.5208 37.3698 94.612 37.4023 94.7031 37.4023C94.9635 37.4023 95.1979 37.2852 95.4062 37.0508C95.6276 36.8164 95.8359 36.4974 96.0312 36.0938C96.2266 35.6901 96.4219 35.2344 96.6172 34.7266C96.8125 34.2057 97.0273 33.6589 97.2617 33.0859C97.3789 32.7604 97.5547 32.5977 97.7891 32.5977ZM107.027 32.5977C107.105 32.5977 107.171 32.6237 107.223 32.6758C107.288 32.7279 107.32 32.806 107.32 32.9102C107.32 33.0143 107.301 33.112 107.262 33.2031C107.066 33.75 106.852 34.2643 106.617 34.7461C106.396 35.2279 106.188 35.6576 105.992 36.0352C105.758 36.4648 105.53 36.8685 105.309 37.2461C105.035 37.6758 104.729 38.0859 104.391 38.4766C104.065 38.8542 103.707 39.1927 103.316 39.4922C102.926 39.7786 102.503 40.0065 102.047 40.1758C101.591 40.3451 101.109 40.4297 100.602 40.4297C100.224 40.4297 99.8073 40.3646 99.3516 40.2344C98.9089 40.1042 98.4922 39.8633 98.1016 39.5117C97.724 39.1602 97.4115 38.6784 97.1641 38.0664C96.9036 37.4544 96.7734 36.6667 96.7734 35.7031C96.7734 35.2604 96.819 34.8112 96.9102 34.3555C96.9883 33.8997 97.1055 33.4635 97.2617 33.0469C97.4049 32.6302 97.5677 32.2396 97.75 31.875C97.9453 31.5104 98.1406 31.1914 98.3359 30.918C98.6745 30.4492 99.0326 30.013 99.4102 29.6094C99.7878 29.1927 100.165 28.8346 100.543 28.5352C100.934 28.2227 101.311 27.9818 101.676 27.8125C102.04 27.6432 102.379 27.5586 102.691 27.5586C103.186 27.5586 103.616 27.7474 103.98 28.125C104.358 28.5026 104.547 29.043 104.547 29.7461C104.547 30.3581 104.391 30.9961 104.078 31.6602C103.766 32.3112 103.375 32.9492 102.906 33.5742C102.438 34.1992 101.936 34.7786 101.402 35.3125C100.868 35.8464 100.38 36.2891 99.9375 36.6406C100.172 37.2266 100.471 37.6562 100.836 37.9297C101.201 38.2031 101.572 38.3398 101.949 38.3398C102.535 38.3398 103.056 38.151 103.512 37.7734C103.98 37.3958 104.397 36.9336 104.762 36.3867C105.139 35.8398 105.465 35.2669 105.738 34.668C106.025 34.069 106.279 33.5417 106.5 33.0859C106.578 32.9297 106.656 32.8125 106.734 32.7344C106.812 32.6432 106.91 32.5977 107.027 32.5977ZM99.4297 33.5352C99.4297 34.3034 99.4883 34.9805 99.6055 35.5664C99.8659 35.306 100.126 35.013 100.387 34.6875C100.66 34.349 100.901 34.0039 101.109 33.6523C101.331 33.3008 101.507 32.9427 101.637 32.5781C101.78 32.2135 101.852 31.862 101.852 31.5234C101.852 31.0026 101.741 30.599 101.52 30.3125C101.298 30.026 101.077 29.8828 100.855 29.8828C100.725 29.8828 100.576 29.9674 100.406 30.1367C100.25 30.293 100.094 30.5273 99.9375 30.8398C99.7943 31.1523 99.6706 31.5365 99.5664 31.9922C99.4753 32.4349 99.4297 32.9492 99.4297 33.5352Z" fill="black"/>
</svg>
